<svg width="70" height="47" viewBox="0 0 70 47" fill="none" xmlns="http://www.w3.org/2000/svg">
<path d="M39.0578 11.352C40.742 11.352 42.1074 9.98667 42.1074 8.30246C42.1074 6.61825 40.742 5.25293 39.0578 5.25293C37.3736 5.25293 36.0083 6.61825 36.0083 8.30246C36.0083 9.98667 37.3736 11.352 39.0578 11.352Z" fill="#8C141F"/>
<path d="M19.8832 7.86367C20.1162 8.59693 20.3012 9.35075 20.637 10.0429C21.3223 11.482 22.2954 11.9548 23.7893 11.7698C24.036 11.7424 24.2896 11.7081 24.4952 11.5642C24.6596 11.4546 24.7693 11.2901 24.8721 11.1256C25.5368 10.036 24.0429 8.02129 23.57 7.07559C22.1172 4.122 20.0956 -0.503694 15.9359 0.0788011C14.3872 0.29124 12.5643 1.62755 11.3308 2.52528C7.80155 5.10196 5.36877 8.93272 3.73779 12.9211C2.07254 17.0123 0.921255 21.3159 0.325054 25.688C-0.216324 29.6695 -0.1615 34.0485 1.10628 37.8999C2.2233 41.2989 4.91648 44.2045 8.08252 45.8218C11.8242 47.7337 15.559 47.1718 19.191 45.1913C22.5489 43.3616 26.0028 41.0522 28.3739 38.0095C30.745 34.9668 32.2184 31.513 34.5415 28.5251C35.1103 27.7919 35.8915 27.086 36.8166 26.8599C37.8583 26.6132 38.5778 27.1682 39.3317 27.8124C40.9147 29.1624 42.0385 30.9784 42.8883 32.863C44.1424 35.6521 45.3279 38.7633 45.9995 41.7443C46.2119 42.69 46.3422 43.6563 46.3353 44.6225C46.3353 44.9446 46.1503 45.719 46.3833 45.8698C46.6985 46.0753 47.5483 45.904 47.8772 45.8012C49.1655 45.4038 49.4739 43.807 49.5699 42.6352C49.7275 40.8534 48.9874 38.9963 48.3775 37.3516C47.5551 35.1244 46.4518 33.1165 45.1977 31.1155C43.8546 28.9637 42.4497 26.853 40.9832 24.7834C40.387 23.9405 40.0101 23.4951 41.2025 23.0771C46.9521 21.076 52.7016 18.6775 58.04 15.7376C61.3842 13.8942 64.7421 11.8863 67.0721 8.78196C67.7505 7.87738 68.3399 6.89742 68.8128 5.86263C69.2034 5.00602 69.9161 3.62174 69.409 2.67604C68.4838 3.06666 67.6135 3.58062 66.7295 4.06033C66.0031 4.45779 65.1122 4.77302 64.8312 5.64334C64.7695 5.83522 64.7421 6.03396 64.701 6.23269C64.4475 7.44565 63.5771 8.3982 62.7891 9.30278C60.8086 11.5848 58.2525 13.2432 55.6141 14.6686C52.7976 16.1899 49.9605 17.7181 47.0343 19.027C45.136 19.8768 42.7787 21.1925 40.6406 20.5552C40.1814 20.4182 39.7154 20.192 39.4824 19.774C38.8382 18.6364 40.0238 16.8889 40.6406 15.9775C41.4492 14.7851 42.436 13.7366 43.4365 12.7087C46.0406 10.036 49.2683 8.01444 52.6331 6.45198C54.2435 5.70502 55.9088 5.01288 57.6083 4.50576C59.6573 3.89586 61.7954 3.6423 63.8787 3.16945C64.6736 2.99128 65.3041 2.51843 65.9894 2.12096C66.1675 2.01817 68.1275 0.709266 68.0932 0.675002C67.3394 0.0171252 66.051 -0.119932 65.119 0.0925069C62.9741 0.579061 60.8703 1.33973 58.7801 2.02502C55.3537 3.14889 52.0232 4.57429 48.8846 6.35604C47.2947 7.26062 45.7528 8.25429 44.2726 9.33704C43.2309 10.0977 41.0175 12.3249 40.4076 12.9828C40.3116 13.0924 40.2499 13.1541 40.2499 13.1678C40.106 14.3808 40.0786 15.9295 39.2083 16.8889C37.3306 18.9516 35.4529 21.0623 33.6986 23.2758C33.4313 23.6116 32.8831 24.1393 32.8283 24.5847C32.7529 25.1329 33.2943 25.4961 33.3491 26.0033C33.4176 26.7091 32.9516 27.6205 32.6707 28.2441C30.7518 32.5752 27.7366 36.5156 23.9812 39.4075C20.2258 42.2994 15.0999 44.739 10.4742 42.9162C9.06933 42.3611 7.76043 41.525 6.75306 40.3943C3.77205 37.0501 3.73094 32.2051 3.8817 27.9906C4.08729 22.1656 5.20431 15.998 8.16475 10.8995C9.70665 8.24058 13.1399 3.93012 16.6623 4.52632C18.0535 4.75932 19.1294 5.87634 19.6296 7.15097C19.7187 7.38397 19.8009 7.61697 19.8763 7.84997L19.8832 7.86367Z" fill="#8C141F"/>
</svg>
