<svg width="24" height="24" viewBox="0 0 24 24" fill="none" xmlns="http://www.w3.org/2000/svg">
<rect width="24" height="23" transform="translate(0 0.68457)" fill="#FFF8F2"/>
<path d="M17.9898 2.21408C16.981 2.11153 15.9672 2.06162 14.9528 2.06458C11.5898 2.06458 9.4998 4.11733 9.4998 7.42166V9.66512H6.6748C6.5422 9.66512 6.41502 9.7156 6.32125 9.80546C6.22748 9.89532 6.1748 10.0172 6.1748 10.1443V13.8339C6.1748 13.961 6.22748 14.0828 6.32125 14.1727C6.41502 14.2626 6.5422 14.313 6.6748 14.313H9.4998V21.7114C9.4998 21.8385 9.55248 21.9603 9.64625 22.0502C9.74002 22.1401 9.8672 22.1905 9.9998 22.1905H13.9778C14.1104 22.1905 14.2376 22.1401 14.3314 22.0502C14.4251 21.9603 14.4778 21.8385 14.4778 21.7114V14.313H17.2938C17.4152 14.3131 17.5325 14.2708 17.6237 14.1941C17.715 14.1174 17.774 14.0115 17.7898 13.8962L18.2868 10.2066C18.2961 10.139 18.2901 10.0702 18.2694 10.005C18.2487 9.93969 18.2138 9.87942 18.1668 9.82817C18.1198 9.77691 18.062 9.73585 17.9972 9.70773C17.9323 9.67961 17.862 9.66509 17.7908 9.66512H14.4778V7.78774C14.4778 6.85816 14.6728 6.47004 15.8858 6.47004H17.9248C18.0574 6.47004 18.1846 6.41955 18.2784 6.32969C18.3721 6.23983 18.4248 6.11795 18.4248 5.99087V2.68941C18.4249 2.57308 18.3808 2.4607 18.3007 2.37323C18.2207 2.28577 18.1102 2.2292 17.9898 2.21408ZM17.4248 5.51074L15.8848 5.5117C13.7278 5.5117 13.4778 6.8112 13.4778 7.78774V10.1452C13.4778 10.2722 13.5303 10.3939 13.6239 10.4837C13.7175 10.5736 13.8444 10.6242 13.9768 10.6244H17.2228L16.8538 13.3557H13.9778C13.8452 13.3557 13.718 13.4061 13.6243 13.496C13.5305 13.5859 13.4778 13.7077 13.4778 13.8348V21.2312H10.4998V13.8348C10.4998 13.7077 10.4471 13.5859 10.3534 13.496C10.2596 13.4061 10.1324 13.3557 9.9998 13.3557H7.1758V10.6244H9.9998C10.1324 10.6244 10.2596 10.5739 10.3534 10.4841C10.4471 10.3942 10.4998 10.2723 10.4998 10.1452V7.42166C10.4998 4.66741 12.1648 3.02291 14.9528 3.02291C15.9618 3.02291 16.8728 3.07562 17.4248 3.12162V5.51074Z" fill="#8C141F"/>
</svg>
