<svg width="160" height="375" viewBox="0 0 160 375" fill="none" xmlns="http://www.w3.org/2000/svg">
<g opacity="0.5">
<path d="M158.81 67.0183C158.374 64.66 158.44 62.262 158.383 59.8683C158.295 56.3947 158.321 52.9211 157.55 49.4696C156.17 43.307 154.79 37.1445 153.908 30.8761C153.534 28.1916 152.705 25.5687 152.009 22.9371C151.272 20.16 150.091 17.5327 149.09 14.8438C148.782 14.403 148.539 13.9225 148.244 13.4728C147.808 12.8116 147.481 12.3752 146.904 11.7889C146.428 11.304 145.903 10.8632 145.462 10.3431C145.286 10.1359 145.127 9.92871 144.991 9.71712C143.721 8.39028 142.201 7.27943 140.376 6.67992C138.93 6.20385 137.466 5.75863 135.994 5.37071C130.51 3.93366 124.96 2.93302 119.322 2.24094C110.995 1.21385 102.642 0.579079 94.2754 0.138267C84.7979 -0.359852 75.3381 0.636385 65.8694 0.790669C65.5432 0.795077 65.2214 0.874423 64.8952 0.896464C63.2686 1.00226 61.6376 1.09483 60.011 1.20062C54.7962 1.54887 49.5858 1.89711 44.3754 2.26739C43.8376 2.30706 43.3086 2.47898 42.7752 2.58478C40.8533 2.95947 38.9358 3.37824 37.005 3.70003C32.0547 4.52876 27.2234 5.8556 22.4979 7.49983C20.1836 8.30652 17.7062 9.09998 16.0135 11.0704C14.8895 12.384 13.9637 13.8696 12.9719 15.2934C12.6942 15.6901 12.6193 16.2632 12.0594 16.5585C11.8214 16.9509 11.5437 17.3123 11.2043 17.6517C11.0059 17.8457 10.8075 18.0441 10.6048 18.238C10.5739 18.2689 10.5519 18.2909 10.5342 18.3041C10.5342 18.3086 10.521 18.3262 10.5034 18.3526C10.4152 18.4717 10.3359 18.5951 10.2521 18.7229C9.88182 19.2872 9.51595 19.8514 9.1104 20.3804C7.65131 24.8017 6.22308 29.2319 5.1475 33.7723C3.59143 40.3448 2.09708 46.9349 1.36974 53.6485C0.77464 59.1586 0.598315 64.7173 0.161911 70.2495C-0.199556 74.8427 0.0561156 79.4052 0.809905 83.9235C1.94279 90.69 3.12858 97.4476 4.50832 104.166C6.05116 111.677 8.86796 118.756 12.5135 125.496C14.7925 129.711 17.142 133.894 19.5709 138.024C23.1811 144.165 27.7171 149.596 32.8085 154.537C37.9748 159.554 43.6921 163.904 49.6607 167.934C52.1822 169.635 54.5934 171.508 57.0664 173.289C57.948 173.924 58.8208 174.59 59.7686 175.119C62.1357 176.454 64.569 177.684 66.9274 179.038C69.3783 180.444 71.9747 181.608 74.1258 183.516C75.3954 184.64 76.3607 185.927 76.6737 187.589C77.0352 189.511 77.3482 191.455 77.5421 193.399C78.5648 203.71 78.5472 214.069 78.6971 224.41C78.8469 234.642 78.7984 244.877 78.1372 255.104C77.5289 264.56 77.2424 274.037 76.8368 283.506C76.6914 286.878 76.4445 290.259 76.5415 293.631C76.7795 301.905 77.2071 310.17 77.5245 318.44C77.6171 320.834 77.3746 323.263 77.67 325.625C78.0931 329.028 77.5686 332.365 77.4011 335.729C77.3041 337.682 76.9514 339.621 76.6164 341.552C76.493 342.257 76.1007 342.914 75.8097 343.641C74.8884 343.641 74.1346 343.65 73.3764 343.641C67.8266 343.58 62.3253 343.778 56.7887 344.536C50.1985 345.44 43.6701 346.568 37.1769 347.975C34.0383 348.653 31.1775 349.905 28.4533 351.541C26.4035 352.771 24.8871 354.49 23.6087 356.412C23.6396 356.707 23.666 357.002 23.6837 357.302C23.7321 358.034 23.7498 358.77 23.8071 359.502C23.8071 359.541 23.8071 359.638 23.8115 359.74C23.8247 359.837 23.8424 359.934 23.86 360.026C23.9173 360.313 23.9878 360.595 24.076 360.868C24.1112 360.983 24.1553 361.093 24.195 361.208C24.195 361.217 24.2038 361.221 24.2038 361.23C24.3317 361.494 24.4683 361.75 24.6182 362.006C24.7592 362.244 24.9091 362.473 25.0634 362.702C27.4085 363.54 29.3172 365.096 31.3273 366.467C33.7915 368.146 36.3791 369.482 39.2576 370.191C41.7922 370.817 44.3489 371.346 46.9057 371.862C53.5223 373.189 60.1388 374.494 66.9274 374.511C67.3638 374.511 67.8046 374.525 68.2322 374.595C72.6888 375.336 77.141 374.908 81.5932 374.573C83.2154 374.45 84.8949 374.556 86.4509 374.176C88.3949 373.705 90.3169 373.674 92.2785 373.656C94.8087 373.634 97.339 373.656 99.8649 373.63C100.619 373.392 101.381 373.18 102.157 373.026C103.449 372.766 104.881 372.572 106.221 372.77C108.857 372.197 111.551 371.928 114.231 371.659C115.355 371.549 116.47 371.386 117.594 371.271C116.88 371.342 117.541 371.276 117.665 371.258C117.793 371.241 117.921 371.223 118.044 371.205C118.331 371.161 118.617 371.122 118.899 371.073C119.472 370.98 120.041 370.884 120.609 370.782C122.915 370.359 125.132 369.715 127.389 369.111C129.734 368.49 132.154 368.071 134.433 367.22C134.451 367.216 134.464 367.207 134.477 367.203C134.574 367.159 134.667 367.119 134.764 367.075C134.998 366.969 135.227 366.859 135.456 366.744C135.557 366.696 135.654 366.643 135.756 366.594C138.277 365.294 140.345 364.099 142.518 363.156C144.202 362.424 145.22 361.19 145.507 359.541C145.784 357.963 145.661 356.301 145.586 354.679C145.564 354.199 145.15 353.692 144.819 353.273C144.056 352.316 143.073 351.624 141.892 351.281C139.595 350.606 137.321 349.83 134.984 349.337C131.26 348.552 127.499 347.904 123.739 347.304C120.627 346.811 117.493 346.414 114.359 346.075C110.246 345.629 106.133 345.211 102.007 344.906C98.1148 344.62 94.2092 344.32 90.0832 345.294C89.8849 344.845 89.6821 344.563 89.6336 344.254C88.9459 339.723 88.4655 335.165 88.7211 330.584C89.1046 323.703 88.2539 316.871 88.1128 310.007C88.0996 309.359 87.9629 308.707 87.866 308.063C87.0549 302.778 86.5567 297.462 86.6625 292.11C86.7331 288.408 87.0108 284.709 87.024 281.011C87.0416 274.584 86.8741 268.152 86.8741 261.725C86.8741 257.476 86.7815 253.209 87.1606 248.986C88.3332 235.832 88.2935 222.652 88.2671 209.467C88.2539 203.582 88.1481 197.702 88.1304 191.817C88.1304 190.737 88.2891 189.648 88.4919 188.586C88.7035 187.492 89.2986 186.659 90.2551 185.967C95.0159 182.516 99.7458 179.02 104.436 175.476C111.247 170.336 117.339 164.447 122.712 157.808C123.735 156.547 124.921 155.406 126.12 154.308C128.293 152.324 130.51 150.42 132.265 148.009C134.248 145.28 136.413 142.679 138.467 140.004C139.926 138.108 141.403 136.217 142.765 134.251C146.565 128.763 149.425 122.777 152.119 116.689C153.931 112.585 155.606 108.472 156.359 104.029C156.796 101.45 157.118 98.845 157.717 96.3059C159.035 90.7473 159.167 85.0696 159.353 79.4228C159.485 75.3056 159.555 71.1399 158.793 67.0315L158.81 67.0183ZM20.5054 10.2108C21.4311 9.56724 22.5993 8.61509 23.7939 8.59305C27.2146 7.29265 30.719 6.2347 34.2984 5.52059C39.0945 4.56402 43.9478 3.8984 48.7747 3.11375C49.3125 3.02559 49.8459 2.91538 50.3881 2.88894C56.3655 2.58478 62.3429 2.2718 68.3203 2.00731C73.1031 1.79572 77.8859 1.5665 82.6688 1.48274C89.8452 1.35932 97.026 1.27115 104.189 2.0029C107.218 2.31147 110.268 2.41727 113.296 2.73024C119.142 3.33416 124.951 4.16288 130.686 5.4765C133.018 6.00989 135.359 6.54327 137.638 7.25739C139.177 7.74228 140.631 8.50929 142.077 9.24104C142.491 9.44822 142.743 9.97279 143.148 10.4401C142.121 11.3305 141.046 11.4936 140.005 11.692C135.844 12.4854 131.674 13.2392 127.508 14.0106C123.66 14.7247 119.829 15.6284 115.95 16.1133C111.961 16.607 107.923 16.704 103.903 16.9553C98.3661 17.2991 92.8251 17.6385 87.2885 17.9559C84.6833 18.1058 82.0737 18.2204 79.4641 18.3306C75.9905 18.4761 72.508 18.7582 69.0388 18.7097C64.256 18.6392 59.4776 18.335 54.6992 18.097C51.2212 17.9206 47.752 17.6738 44.274 17.4886C39.8262 17.2506 35.3211 17.4357 30.9791 16.2676C27.8361 15.4212 24.7548 14.3192 21.9116 12.6706C21.3826 12.362 20.9462 11.8947 20.3467 11.3966C20.3511 11.3922 20.3555 11.3834 20.3643 11.379C20.1087 11.0572 20.069 10.5194 20.5054 10.2152V10.2108ZM78.7896 284.603C78.8381 282.862 78.9836 281.125 79.0409 279.384C79.2657 272.424 79.4729 265.459 79.6933 258.498C79.7285 257.41 79.6977 256.312 79.852 255.236C80.5 250.687 80.187 246.107 80.3677 241.54C80.4691 238.931 80.619 236.326 80.738 233.716C80.7821 232.737 80.8438 231.754 80.813 230.78C80.6807 226.645 80.4779 222.515 80.3765 218.38C80.3016 215.233 80.2311 212.081 80.7997 208.951C80.9276 208.237 80.7424 207.466 80.6895 206.571C81.073 206.333 81.5182 206.059 81.8973 205.826C82.9862 205.984 82.7084 207.012 83.1757 207.514C83.3476 207.166 83.5239 206.818 83.7223 206.416C84.7097 207.637 84.9874 208.978 84.983 210.401C84.983 211.38 85.0932 212.385 84.9301 213.337C84.3968 216.37 84.7097 219.416 84.6612 222.453C84.5819 227.024 84.3747 231.591 84.2777 236.158C84.2028 239.64 84.2469 243.123 84.1719 246.605C84.1323 248.452 84.0088 250.299 83.8369 252.137C83.5724 254.95 83.1008 257.749 82.9773 260.566C82.9024 262.281 83.2242 264.035 83.5328 265.741C84.2028 269.413 84.0706 273.125 83.9956 276.81C83.9119 281.046 83.352 285.273 83.2418 289.51C83.114 294.403 83.2595 299.304 83.2771 304.202C83.2947 309.205 83.4049 314.217 83.2903 319.216C83.2021 323.02 82.8319 326.816 82.5453 330.615C82.488 331.356 82.25 332.088 82.0913 332.819C81.5138 327.865 81.9282 322.91 81.2449 317.977C79.9225 320.159 80.6058 322.615 80.0239 325.268C79.8564 324.788 79.7506 324.598 79.7285 324.4C79.6933 324.078 79.7285 323.747 79.7153 323.421C79.3494 313.415 78.9439 303.408 78.6397 293.402C78.5516 290.471 78.7103 287.53 78.794 284.595L78.7896 284.603ZM79.658 198.341C79.8123 198.31 79.9622 198.279 80.1165 198.244V202.048C80.0371 202.057 79.9578 202.066 79.874 202.074C79.8035 201.466 79.6977 200.858 79.6668 200.245C79.6316 199.61 79.658 198.971 79.658 198.336V198.341ZM81.8841 193.924C81.8709 193.84 82.1442 193.686 82.3073 193.602C82.3514 193.58 82.5277 193.69 82.5365 193.756C82.5982 194.25 82.6379 194.748 82.682 195.242C82.5365 195.268 82.3867 195.29 82.2412 195.317C82.1133 194.854 81.9635 194.395 81.8885 193.924H81.8841ZM83.7091 192.235C83.7796 192.235 83.8502 192.231 83.9207 192.227V193.558C83.8722 193.558 83.8237 193.562 83.7752 193.567L83.7091 192.235ZM79.345 340.406C79.345 340.445 79.2304 340.49 79.1643 340.534C79.1379 340.353 79.1026 340.172 79.0982 339.996C79.0982 339.952 79.2128 339.908 79.2745 339.864C79.301 340.044 79.3406 340.225 79.3406 340.406H79.345ZM45.2394 369.446C44.49 369.358 43.7538 369.164 43.0089 369.019C42.2639 368.873 41.5189 368.75 40.7784 368.587C40.1436 368.446 39.4692 368.358 38.9093 368.067C38.2569 367.727 37.7235 367.159 37.0976 366.753C36.5025 366.37 35.8545 366.065 35.2285 365.726C39.5529 366.043 43.1632 368.375 47.8843 369.407C46.5486 369.874 45.883 369.521 45.2394 369.446ZM45.4907 367.084C42.449 365.946 39.4427 364.717 36.4364 363.491C36.1939 363.39 36.0529 363.042 35.6165 362.499C36.7758 362.609 37.6354 362.57 38.42 362.79C40.2979 363.306 42.1493 363.928 43.9963 364.536C45.9535 365.184 47.9063 365.801 49.9913 365.898C50.6349 365.929 51.2873 366.061 51.9089 366.237C55.1488 367.172 58.4814 367.533 61.8183 367.89C62.3253 367.943 62.819 368.137 63.3039 368.653C62.6294 368.684 61.9506 368.785 61.2806 368.732C56.965 368.393 52.6539 368.04 48.3427 367.648C47.3817 367.56 46.3855 367.414 45.4907 367.075V367.084ZM52.6583 370.817C52.3761 370.773 52.0984 370.703 51.349 370.544C52.1028 370.482 52.385 370.434 52.6583 370.452C52.7596 370.46 52.8434 370.641 52.936 370.738C52.8434 370.765 52.742 370.826 52.6539 370.813L52.6583 370.817ZM56.079 370.941C59.6055 371.324 63.132 371.708 66.6585 372.087C64.0577 372.744 60.0507 372.307 56.079 370.941ZM90.621 370.87C90.5946 370.791 90.5637 370.707 90.5373 370.628C90.7224 370.593 90.912 370.526 91.0971 370.531C91.2293 370.535 91.3572 370.641 91.5996 370.751C91.1941 370.8 90.9076 370.835 90.621 370.87ZM87.002 345.757C87.0196 345.647 87.2753 345.581 87.4207 345.497C87.4913 345.669 87.5618 345.845 87.6323 346.017C87.478 346.114 87.3193 346.207 87.1651 346.299C87.1033 346.119 86.9711 345.92 87.002 345.757ZM88.0158 357.483C88.8842 358.492 89.7041 359.466 91.3263 358.735C91.7804 358.528 92.5606 358.955 93.1645 359.176C95.4082 359.995 97.6388 360.868 99.8869 361.675C100.213 361.794 100.632 361.653 101.483 361.609C100.041 360.494 98.7717 360.154 97.5726 359.7C96.7615 359.392 95.8931 359.228 95.0776 358.929C92.0977 357.849 89.616 356.262 88.8446 352.872C88.6065 351.832 88.1833 350.835 88.0996 349.672C89.4485 351.66 90.7929 353.648 92.0448 355.495C95.5978 355.684 98.6394 356.949 101.822 357.562C103.735 357.932 105.662 358.254 107.588 358.567C108.007 358.633 108.505 358.699 108.871 358.541C111.595 357.364 114.443 357.919 117.246 357.906C118.551 357.902 119.856 357.968 121.161 357.946C121.522 357.941 121.883 357.738 122.399 357.575C122.011 357.342 121.835 357.143 121.654 357.139C118.066 357.126 114.473 357.091 110.885 357.157C109.602 357.179 108.289 357.716 107.059 357.54C105.939 357.381 104.93 356.544 103.845 356.068C100.658 354.666 97.4536 353.317 94.271 351.907C92.3666 351.065 91.1456 349.636 90.7797 347.666C91.1015 346.864 91.7098 346.969 92.2212 346.903C96.356 346.361 100.482 346.709 104.604 347.062C108.941 347.432 113.292 347.706 117.603 348.261C121.698 348.79 125.758 349.61 129.827 350.342C131.647 350.668 133.459 351.043 135.253 351.483C137.153 351.946 139.044 352.471 140.909 353.053C141.954 353.379 142.941 353.886 143.333 355.054C142.566 358.316 142.086 358.761 139.124 358.792C140.137 357.963 141.094 357.262 141.945 356.447C142.165 356.235 142.236 355.548 142.064 355.314C141.865 355.05 141.262 354.869 140.927 354.966C140.318 355.142 139.732 355.49 139.221 355.878C136.003 358.29 132.185 359.127 128.421 360.207C128.178 359.321 128.862 359.215 129.21 358.915C129.994 358.241 130.431 357.386 130.576 356.39C130.753 355.213 130.396 354.216 129.36 353.568C127.654 352.506 125.793 351.942 123.77 352.096C123.197 352.14 122.747 352.436 122.972 353.277C124.718 353.903 126.688 354.142 128.271 355.116C128.725 356.169 128.588 357.033 127.733 357.545C126.336 358.373 124.925 359.277 123.4 359.779C119.997 360.908 116.519 361.812 113.067 362.79C112.759 362.878 112.34 362.989 112.111 362.856C110.44 361.891 108.928 362.803 107.412 363.249C105.415 363.831 103.4 364.192 101.32 364.329C98.9347 364.483 96.5455 364.721 94.1828 365.096C91.8068 365.475 89.4352 365.669 87.0328 365.567C86.2922 365.536 85.5429 365.66 84.7494 366.087C85.1682 366.18 85.587 366.37 86.0013 366.356C89.3691 366.237 92.7369 366.057 96.1047 365.942C100.134 365.81 104.105 365.246 108.077 364.606C109.241 364.421 110.458 364.576 112.186 364.576C111.388 365.008 111.022 365.334 110.616 365.404C105.803 366.268 101.095 367.727 96.1709 367.957C94.9762 368.014 93.7817 368.124 92.5915 368.208C90.3125 368.362 88.0335 368.525 85.7545 368.657C84.8861 368.71 84.0044 368.79 83.1493 368.688C74.7209 367.714 66.2309 367.242 57.8731 365.695C54.0248 364.985 50.1985 364.161 46.3723 363.328C45.6537 363.169 44.9925 362.729 44.3093 362.416C45.3893 362.473 46.4781 362.464 47.5448 362.609C49.4756 362.87 51.3843 363.262 53.3151 363.509C54.6022 363.676 55.907 363.751 57.2074 363.742C58.4682 363.734 59.7245 363.57 60.9852 363.473C58.9178 362.975 56.8901 362.609 54.8447 362.455C50.7099 362.142 46.6985 361.252 42.7797 359.969C41.3514 359.502 39.9496 358.832 38.6845 358.025C36.9565 356.923 36.8816 356.085 37.9748 354.252C38.1732 353.917 38.6801 353.657 38.1423 353.057C37.556 353.48 36.9389 353.895 36.3614 354.349C34.8715 355.526 34.7921 356.359 35.9647 357.875C36.9962 359.211 38.3715 360.009 39.932 360.591C41.4352 361.15 42.8987 361.829 44.3798 362.455C41.6159 361.869 38.8564 361.269 36.0881 360.705C35.4578 360.577 34.7172 360.366 34.1706 360.573C32.7776 361.098 31.6007 360.529 30.4016 360.079C28.9029 359.519 27.219 359.246 26.1698 357.703C26.4167 355.455 27.6686 353.934 29.5994 352.903C33.0686 351.047 36.6744 349.592 40.5447 348.733C45.9711 347.529 51.4945 346.952 56.9562 346.017C62.6162 345.048 68.2322 345.665 73.8702 345.66C74.3683 345.66 74.8664 345.916 75.4306 346.075C75.3777 347.662 74.6372 348.662 73.6497 349.553C73.015 350.126 72.4111 350.73 71.7895 351.32L71.7498 351.272C71.7498 351.272 71.719 351.307 71.7058 351.325C71.7234 351.325 71.741 351.325 71.7587 351.325C71.838 351.814 72.0099 352.317 71.9438 352.784C71.8601 353.383 71.5647 353.956 71.2605 354.834C73.0546 354.525 73.0943 352.682 74.3198 352.299C75.7833 351.84 76.0963 350.483 76.6914 349.354C77.2953 348.204 77.8419 347.022 78.7367 345.184C78.6309 346.917 78.5692 347.97 78.5119 348.944C79.2348 349.284 79.4729 348.913 79.6668 348.53C80.5 346.881 81.2582 345.219 81.4742 343.337C81.6417 341.874 81.9326 340.406 82.6776 339.07C83.4622 339.449 83.3256 340.031 83.2198 340.525C82.9244 341.905 82.5938 343.28 82.2235 344.646C81.7827 346.286 81.8048 347.908 82.5277 349.438C83.2242 350.906 83.9736 352.374 84.8949 353.71C85.8162 355.045 86.9711 356.227 88.0335 357.461L88.0158 357.483ZM85.7368 311.246V309.377C85.7941 309.377 85.847 309.377 85.9043 309.373C85.9396 309.99 85.9793 310.611 86.0145 311.228C85.922 311.233 85.8294 311.242 85.7368 311.246ZM86.3804 323.117V317.435H86.5876V323.117C86.5171 323.117 86.4509 323.117 86.3804 323.117ZM118.582 159.875C116.29 160.841 114.835 162.723 113.142 164.411C110.771 166.779 108.328 169.102 105.397 170.856C103.074 172.245 100.927 173.929 98.7232 175.507C97.4933 176.388 96.2722 177.266 94.6721 177.997C94.6985 177.508 94.606 177.133 94.747 176.983C96.6822 174.956 98.397 172.677 101.364 171.927C102.245 171.707 103.07 170.966 103.726 170.283C104.092 169.904 104.061 169.141 104.264 168.321C105.811 167.568 107.469 166.977 108.875 166.016C110.749 164.729 112.419 163.155 114.174 161.696C115.095 160.933 115.968 160.109 116.938 159.413C117.528 158.989 118.256 158.76 118.899 158.456C119.556 159.245 118.948 159.717 118.591 159.867L118.582 159.875ZM99.8869 167.149C100.028 166.981 100.495 167.092 101.064 167.061C100.614 167.682 100.024 168.136 99.9927 168.626C99.9486 169.331 99.8252 169.922 99.2654 170.301C98.7408 170.658 98.1281 170.9 97.5418 171.165C96.9599 171.429 96.3604 171.658 95.0424 172.201C96.3824 169.565 98.538 168.753 99.8825 167.149H99.8869ZM98.5116 163.944C98.9392 162.961 99.3888 162.225 100.464 161.864C100.197 163.027 99.546 163.721 98.5116 163.944ZM106.684 145.002C106.675 144.967 106.667 144.932 106.658 144.897H107.861V145.002H106.684ZM107.769 155.357C107.487 155.414 107.209 155.498 106.935 155.503C106.891 155.503 106.768 155.04 106.803 155.022C107.05 154.89 107.332 154.815 107.601 154.722C107.65 154.903 107.698 155.079 107.773 155.357H107.769ZM94.1299 122.671C91.7495 123.341 89.5543 123.314 87.2885 122.869C89.5454 122.115 90.1538 122.093 94.1299 122.671ZM92.7149 120.075H93.9007C93.9007 120.123 93.9007 120.171 93.9007 120.22H92.7149C92.7149 120.171 92.7149 120.123 92.7149 120.075ZM93.3761 117.43C89.4573 117.844 85.609 117.015 81.7254 116.574C83.5724 116.574 85.415 116.566 87.262 116.574C89.206 116.588 91.0927 116.605 93.0499 116.028C94.8749 115.49 96.9335 115.772 98.8863 115.644C103.334 115.353 107.795 115.155 112.23 114.688C117.418 114.141 122.637 113.863 127.79 112.929C130.656 112.409 133.613 112.391 136.598 112.466C134.94 112.872 133.283 113.304 131.617 113.678C125.555 115.036 119.388 115.6 113.226 116.253C109.554 116.641 105.922 117.377 102.267 117.919C100.874 118.126 99.4681 118.285 98.0619 118.347C97.4404 118.373 96.7219 118.258 96.2017 117.945C95.2892 117.399 94.3591 117.315 93.3761 117.421V117.43ZM73.1208 121.498C69.5502 121.463 65.9796 121.11 62.4179 120.828C60.7428 120.696 58.9971 120.749 57.5072 119.744C62.7837 120.105 68.0602 120.471 73.3368 120.833C73.7467 120.859 74.1567 120.833 74.5226 120.833C74.7606 120.07 74.3154 119.889 73.9186 119.859C72.4067 119.735 70.8858 119.695 69.3695 119.581C68.7788 119.537 68.0558 119.814 67.5621 118.823C69.4356 118.567 71.2429 118.576 73.0326 118.554C74.981 118.532 76.9735 118.413 78.8734 118.748C80.619 119.061 82.347 119.598 84.0794 119.739C84.2204 120.656 83.7311 120.961 83.1845 120.996C79.8344 121.207 76.4754 121.529 73.1208 121.498ZM73.8349 123.954C73.8217 124.007 73.8128 124.095 73.7908 124.104C73.6894 124.126 73.5836 124.121 73.4778 124.13C73.4911 124.068 73.5087 124.002 73.5219 123.94C73.6277 123.945 73.7291 123.949 73.8349 123.954ZM63.0658 104.792C64.8555 103.619 66.4292 102.826 68.3468 102.852C68.9904 102.861 69.6648 102.799 70.2731 102.601C70.6125 102.491 71.0313 102.045 71.0622 101.723C71.093 101.371 70.8021 100.807 70.4935 100.643C69.8411 100.304 69.0917 100.04 68.3644 99.9735C63.3656 99.4974 58.3844 99.969 53.3988 100.326C51.7766 100.441 50.128 100.608 48.5234 100.436C45.6846 100.137 42.8766 100.212 40.0554 100.538C39.0901 100.648 38.1159 100.648 37.0226 100.37C37.5075 100.137 37.966 99.7927 38.4773 99.6869C40.1789 99.3387 41.898 99.0742 43.6084 98.7833C44.3578 98.6554 45.1248 98.6025 45.8609 98.4262C51.4769 97.0773 57.1766 96.2618 62.916 95.6844C63.78 95.5962 64.6263 95.3582 65.4859 95.2303C66.3411 95.1025 67.2315 94.9085 67.9985 95.5124C68.8273 96.1604 69.7397 96.0106 70.4318 95.4948C71.86 94.4324 73.4646 94.4104 75.0956 94.3531C76.2946 94.309 77.4892 94.2429 78.6882 94.2429C82.2764 94.2429 85.8426 94.2429 89.4352 93.9123C94.8572 93.423 100.306 93.7095 105.741 94.2429C108.209 94.4853 110.722 94.428 113.208 94.3355C120.089 94.071 126.922 94.3575 133.662 95.8563C136.1 96.3985 138.529 97.0068 140.927 97.6989C142.5 98.1529 143.871 98.8097 144.422 100.714C144.942 102.504 146.781 103.05 149.051 102.371C150.188 102.032 151.264 101.499 152.41 101.036C152.961 101.534 152.784 102.16 152.392 102.689C151.682 103.637 150.933 104.448 149.738 104.972C147.962 105.753 146.3 106.78 144.44 107.432C142.888 107.974 142.778 108.248 141.566 110.403C141.2 110.452 140.772 110.566 140.353 110.549C134.552 110.337 128.857 111.258 123.131 111.99C118.392 112.594 113.601 112.801 108.831 113.167C108.293 113.207 107.729 113.198 107.204 113.079C106.129 112.832 105.177 112.603 104.15 113.462C103.66 113.877 102.695 113.775 101.937 113.811C96.2811 114.062 90.6254 114.282 84.9698 114.525C81.4918 114.675 78.0182 114.838 73.7291 115.032C75.4835 113.824 76.7266 113.718 78.0446 113.744C79.3362 113.771 80.641 113.714 81.9282 113.573C84.4188 113.295 86.8962 112.951 89.4 113.401C89.6116 113.44 89.832 113.493 90.0436 113.471C93.7199 113.074 97.4404 112.916 101.059 112.21C106.742 111.104 112.463 110.557 118.225 110.209C120.385 110.077 122.571 110.103 124.815 109.072C122.769 108.283 120.94 109.186 119.115 109.142C117.308 109.098 115.5 109.134 113.46 109.134C113.962 108.75 114.2 108.569 114.685 108.199C113.041 107.82 111.652 107.952 110.281 108.173C105.106 109.001 99.8913 109.253 94.6677 109.358C93.6141 109.38 92.5562 109.257 91.5071 109.094C99.931 107.432 108.456 106.63 116.911 105.779C117.105 104.889 116.558 104.919 116.197 104.902C112.939 104.739 109.691 104.465 106.429 105.069C104.511 105.426 102.527 105.387 100.583 105.629C94.4341 106.387 88.2495 106.907 82.1707 108.181C81.9062 108.239 81.5844 108.014 81.267 107.912C81.4169 107.692 81.505 107.419 81.6329 107.397C84.9169 106.833 88.2054 106.29 91.4806 105.581C90.189 105.387 88.9327 105.514 87.6411 105.678C84.0838 106.132 80.5176 106.471 76.9514 106.841C76.039 106.938 75.2234 106.753 74.7606 105.735C76.277 104.686 78.005 104.747 79.7153 104.739C80.4735 104.739 81.2317 104.809 81.9899 104.805C82.3117 104.805 82.6335 104.69 82.9509 104.624C84.0926 104.377 85.2343 104.126 86.3407 103.531C84.8596 103.531 83.3785 103.482 81.8973 103.544C79.9445 103.628 77.9962 103.831 76.0434 103.914C74.8135 103.967 73.685 104.188 72.7285 105.038C72.4155 105.316 71.9658 105.431 71.525 105.651C68.9771 103.928 66.1119 105.254 63.0747 104.8L63.0658 104.792ZM66.2044 108.322C66.1119 108.367 66.0237 108.433 65.9311 108.45C65.8297 108.472 65.7239 108.45 65.6181 108.446C65.7195 108.367 65.8121 108.256 65.9267 108.225C66.0016 108.203 66.1119 108.287 66.2044 108.322ZM56.7931 103.879H55.863C55.863 103.826 55.863 103.773 55.863 103.725H56.7887C56.7887 103.778 56.7887 103.831 56.7887 103.879H56.7931ZM46.2092 104.536C44.5297 104.8 42.8502 105.065 41.1707 105.329C42.7708 104.135 44.4724 104.201 46.2092 104.536ZM141.927 113.595C138.969 115.181 136.179 115.75 132.467 115.503C133.547 115.133 134.12 114.794 134.715 114.754C137.017 114.591 139.185 113.528 141.927 113.595ZM71.7763 114.005C71.7587 114.185 71.7454 114.366 71.7278 114.542C71.4281 114.591 71.1107 114.719 70.8285 114.666C70.5641 114.617 70.3348 114.379 70.0924 114.221C70.2731 114.124 70.445 113.96 70.6302 113.952C71.0093 113.925 71.3928 113.982 71.7763 114.005ZM68.9331 116.795C68.9331 116.835 68.9331 116.874 68.9331 116.914H60.9676C60.9676 116.874 60.9676 116.835 60.9676 116.795H68.9331ZM132.124 118.752C132.071 118.779 132.018 118.818 131.965 118.823C131.877 118.823 131.784 118.805 131.696 118.792C131.749 118.765 131.802 118.721 131.855 118.717C131.943 118.717 132.031 118.739 132.124 118.748V118.752ZM131.612 123.416C131.436 123.447 131.26 123.491 131.083 123.5C131.039 123.5 130.991 123.398 130.947 123.345C131.123 123.314 131.299 123.27 131.48 123.257C131.52 123.257 131.568 123.363 131.617 123.416H131.612ZM128.421 129.389C128.372 129.239 128.324 129.089 128.275 128.939C128.892 128.75 129.514 128.556 130.131 128.366C130.171 128.485 130.215 128.609 130.254 128.728C129.642 128.948 129.029 129.168 128.421 129.384V129.389ZM128.571 135.481C128.346 135.944 127.491 136.085 126.935 135.754C126.865 135.715 126.838 135.6 126.79 135.516C126.821 135.424 126.829 135.3 126.891 135.238C127.376 134.802 128.319 134.771 128.575 135.177C128.619 135.247 128.606 135.393 128.566 135.476L128.571 135.481ZM123.589 128.084C123.484 128.221 123.29 128.291 123.127 128.388C122.99 128.278 122.858 128.168 122.725 128.058C122.937 127.93 123.149 127.802 123.36 127.679C123.444 127.82 123.625 128.036 123.585 128.084H123.589ZM120.213 125.708C120.336 125.571 120.46 125.439 120.583 125.303C120.711 125.422 120.834 125.536 120.962 125.655C120.83 125.779 120.711 125.977 120.565 126.003C120.46 126.021 120.319 125.805 120.213 125.712V125.708ZM120.438 128.406C120.455 128.441 120.297 128.613 120.261 128.6C120.107 128.547 119.97 128.45 119.79 128.344C119.926 128.225 120.05 128.111 120.178 128C120.266 128.133 120.371 128.26 120.433 128.406H120.438ZM115.694 132.012C115.597 132.021 115.496 131.954 115.395 131.924C115.496 131.813 115.593 131.615 115.699 131.615C115.999 131.611 116.298 131.686 117.105 131.8C116.298 131.928 115.999 131.985 115.699 132.016L115.694 132.012ZM115.791 134.551C115.434 134.635 115.082 134.718 114.725 134.802C114.689 134.648 114.65 134.498 114.614 134.344C114.985 134.308 115.359 134.273 115.73 134.238C115.752 134.344 115.774 134.445 115.791 134.551ZM114.742 129.054C115.276 128.71 115.505 128.454 115.761 128.423C116.356 128.357 116.968 128.401 117.951 128.401C116.871 129.702 116.007 129.517 114.747 129.049L114.742 129.054ZM118.326 140.806C118.432 140.903 118.538 141 118.643 141.097C118.463 141.15 118.282 141.247 118.106 141.234C117.995 141.225 117.894 141.053 117.793 140.956C117.973 140.907 118.15 140.859 118.33 140.81L118.326 140.806ZM112.953 151.681C112.816 151.804 112.692 151.998 112.534 152.033C112.432 152.055 112.287 151.835 112.159 151.72C112.296 151.606 112.424 151.425 112.573 151.403C112.684 151.385 112.825 151.579 112.953 151.681ZM110.387 134.599C110.453 134.595 110.528 134.736 110.766 134.987C108.007 135.64 105.353 135.384 102.699 135.164C105.26 134.974 107.826 134.78 110.387 134.604V134.599ZM101.871 132.964C102.166 132.699 102.303 132.466 102.461 132.453C105.362 132.201 108.262 131.972 111.776 131.694C109.752 132.999 108.082 132.51 106.512 132.638C105.018 132.761 103.519 132.849 101.866 132.964H101.871ZM110.33 154.665C110.506 154.656 110.691 154.758 110.872 154.815C110.828 154.908 110.779 155 110.726 155.11H110.18C110.233 154.952 110.277 154.669 110.334 154.665H110.33ZM151.744 112.519C150.704 115.261 149.536 117.963 148.293 120.626C144.55 128.657 139.908 136.124 134.169 142.895C133.746 143.393 133.287 143.87 132.913 144.399C129.827 148.789 126.261 152.725 121.734 156.115C121.165 156.001 120.38 155.842 119.525 155.67C120.007 154.756 120.795 154.399 121.888 154.599C123.201 153.113 124.52 151.54 125.93 150.054C127.574 148.322 129.351 146.713 130.969 144.963C133.944 141.749 136.188 137.998 138.467 134.295C141.032 130.125 143.474 125.88 145.943 121.653C146.379 120.908 146.75 120.105 147.045 119.294C147.6 117.76 148.116 116.239 149.082 114.869C149.624 114.097 149.813 113.07 150.148 112.153C150.876 110.143 151.696 108.186 153.366 105.929C153.208 108.684 152.458 110.619 151.74 112.519H151.744ZM156.968 83.2931C156.941 84.8139 156.765 86.3347 156.725 87.8599C156.633 91.4746 155.941 94.9791 154.962 98.6819C151.784 97.8796 148.707 97.0905 145.617 96.3324C143.928 95.918 142.236 95.5168 140.53 95.1906C136.792 94.4809 133.054 93.7668 129.298 93.1585C126.503 92.7089 123.691 92.44 120.843 92.6516C119.331 92.7662 117.793 92.7089 116.276 92.6031C111.172 92.246 106.072 91.814 100.967 91.4437C98.4807 91.263 96.0518 90.5886 93.5039 90.8486C89.8276 91.2277 86.1291 91.3953 82.444 91.7126C79.6272 91.9551 76.828 92.343 74.0112 92.5546C68.8008 92.9469 63.5816 93.2114 58.3712 93.6169C55.6602 93.8285 52.9668 94.2209 50.2646 94.5382C45.0763 95.1466 39.8835 95.7196 34.6996 96.372C29.7316 96.998 24.7813 97.743 20.0381 99.4798C18.8127 99.9294 17.5299 100.207 16.2956 100.63C15.7182 100.829 15.1936 101.172 14.215 101.671C15.1055 102.023 15.5595 102.208 16.0223 102.389V103.822C16.9304 104.545 17.8429 105.523 18.9626 106.114C22.0482 107.745 25.2221 109.173 28.8412 109.129C29.7008 109.12 30.5647 109.363 31.4287 109.464C33.9017 109.759 36.335 110.438 38.8741 110.024C39.5926 109.905 40.3816 110.147 41.1266 110.266C42.0876 110.421 43.0353 110.712 44.0007 110.778C45.592 110.884 46.9586 111.373 47.9107 112.664C48.3119 112.664 48.6645 112.753 48.9466 112.651C52.1205 111.496 55.1224 111.964 57.9833 113.603C58.7282 114.031 59.438 113.982 60.1741 113.744C62.2195 113.092 64.2693 113.44 66.319 113.683C66.4689 113.7 66.5923 113.965 66.9053 114.313C66.4116 114.414 66.0501 114.564 65.6931 114.551C61.9947 114.384 58.3007 114.194 54.6067 114C53.5178 113.943 52.4334 113.877 51.349 113.758C49.7313 113.581 48.1179 113.365 46.5089 113.141C45.4289 112.991 44.3622 112.647 43.2866 112.634C37.9131 112.567 32.6895 111.47 27.4702 110.385C24.2876 109.724 21.1446 108.869 17.9928 108.062C17.261 107.873 16.5734 107.507 15.8548 107.256C14.3957 106.753 13.4348 105.845 13.2232 104.245C13.1835 103.954 12.9499 103.685 12.822 103.438C12.0815 103.196 11.7332 103.566 11.5481 104.13C10.1772 108.358 10.5827 112.515 12.271 116.544C13.5229 119.532 14.4178 122.719 16.2339 125.417C17.4153 127.172 17.9487 129.362 19.7648 130.72C20.2277 131.064 20.3599 131.84 20.6817 132.395C20.9947 132.937 21.246 133.616 21.722 133.947C22.683 134.608 23.2561 135.357 23.4721 136.539C23.569 137.068 24.2126 137.562 24.7063 137.945C26.2492 139.153 27.7524 140.378 28.753 142.115C29.0087 142.56 29.4627 142.904 29.8506 143.266C31.0408 144.376 32.2398 145.479 33.4388 146.572C34.3425 147.396 35.18 148.251 34.8406 149.662C35.7443 150.019 36.4584 150.257 37.1284 150.583C37.7059 150.861 38.3142 151.152 38.7771 151.584C40.8224 153.506 42.8149 155.489 44.8471 157.425C45.3937 157.945 46.024 158.381 46.6191 158.857C46.7734 157.94 47.1172 157.632 47.5404 158.046C48.0209 158.513 48.3912 159.091 48.8012 159.624C48.3736 159.527 47.946 159.426 47.514 159.329C47.6154 160.136 48.0474 160.7 48.81 160.951C48.9158 160.986 49.2993 160.625 49.2816 160.479C49.2508 160.215 49.0656 159.972 48.9246 159.726C49.674 160.096 50.4542 160.409 51.1507 160.854C52.9889 162.013 54.8535 163.151 56.5903 164.451C60.9279 167.695 66.1471 169.137 70.8682 171.592C71.1503 171.738 71.4854 171.791 71.8027 171.866C71.8865 171.883 71.9879 171.808 72.2568 171.716C71.9262 170.64 70.7624 170.618 70.1277 170.01C69.5282 169.441 68.4746 169.45 68.0558 168.388C70.52 168.022 72.8431 169.388 75.2234 168.586C74.8267 167.695 74.0024 167.643 73.2927 167.598C71.8601 167.502 70.5288 167.33 69.321 166.377C68.7788 165.95 67.8927 165.901 67.1434 165.818C65.5212 165.632 63.8902 165.553 62.268 165.394C61.4481 165.315 60.8441 164.954 60.8309 163.777C63.0262 163.781 65.1641 164.085 67.2932 164.425C72.0584 165.183 76.8412 165.13 81.6329 164.843C82.272 164.804 82.9817 164.826 83.1889 163.816C81.0334 163.177 78.9263 164.24 76.806 164.046C74.6372 163.847 72.4684 163.697 70.304 163.464C68.1396 163.23 65.9708 162.996 63.824 162.631C61.7478 162.273 59.579 162.207 57.732 160.784C59.1691 160.858 60.6105 160.96 62.0476 161C63.5728 161.039 65.098 161.013 66.6188 161.017C68.2542 161.017 69.8852 161.03 71.5206 161.008C73.0414 160.986 74.571 160.969 76.0874 160.854C77.5906 160.739 79.085 160.506 80.7601 160.307C80.5176 159.783 80.4118 159.51 80.2663 159.258C80.2311 159.201 80.0548 159.197 79.9534 159.219C76.7354 159.972 73.4911 159.823 70.2246 159.642C67.8398 159.514 65.4374 159.686 63.0438 159.712C60.9323 159.739 58.9795 159.302 57.4278 157.746C58.1552 157.618 58.8781 157.407 59.6099 157.38C65.8165 157.156 72.0099 157.632 78.2077 157.87C79.1114 157.905 80.0944 158.214 80.8703 157.46C80.5264 156.503 79.8211 156.613 79.1996 156.596C73.6453 156.446 68.0955 156.305 62.5413 156.159C61.9947 156.146 61.4481 156.19 60.9059 156.137C59.4997 155.996 58.0847 155.868 56.6961 155.613C56.2377 155.529 55.7616 155.146 55.4486 154.766C55.1753 154.436 55.9026 153.955 56.8636 153.916C61.4304 153.717 65.9972 153.51 70.5685 153.338C72.5257 153.263 74.4256 152.955 76.2594 152.241C76.2065 151.297 75.5232 151.566 75.0648 151.571C71.0357 151.593 67.0023 151.795 62.9821 151.645C59.4071 151.509 55.8453 151.006 52.2836 150.618C51.2873 150.508 50.4145 150.111 50.1236 148.833C50.6349 148.758 51.0537 148.613 51.4548 148.652C54.924 148.965 58.3888 149.327 61.858 149.635C65.3272 149.944 68.7964 150.226 72.27 150.482C72.9885 150.535 73.7776 150.574 74.2757 149.887C74.0817 149.031 73.4382 149.137 72.9753 149.164C67.8354 149.441 62.7793 148.454 57.6791 148.137C54.8579 147.96 52.0543 147.524 49.2464 147.184C48.8232 147.132 48.3427 147.074 48.0077 146.845C47.7212 146.647 47.6021 146.201 47.3068 145.677C47.9901 145.584 48.4176 145.452 48.8276 145.487C53.7074 145.888 58.5916 146.25 63.4582 146.77C65.3272 146.968 67.1037 146.801 68.8978 146.567C68.9551 145.637 68.3688 145.483 67.8795 145.456C66.9097 145.408 65.9311 145.54 64.9569 145.514C60.8353 145.412 56.7181 145.258 52.6274 144.681C51.3358 144.5 50.0134 144.544 48.7174 144.399C47.6418 144.275 46.5662 144.077 45.5303 143.786C45.2438 143.706 45.0851 143.177 44.8691 142.856C45.2306 142.688 45.5964 142.371 45.9535 142.38C46.8175 142.397 47.6771 142.587 48.5455 142.666C53.0947 143.081 57.6483 143.482 62.1974 143.892C63.0967 143.971 63.0967 143.98 64.547 143.468C63.1231 142.772 63.1187 142.798 61.2938 142.706C59.9934 142.64 58.6886 142.516 57.3926 142.384C56.2024 142.261 55.021 142.071 53.8352 141.948C52.645 141.824 51.446 141.767 50.2558 141.643C48.9554 141.511 47.6594 141.344 46.3635 141.189C45.2173 141.053 43.9831 141.392 42.5064 140.378C44.9308 140.127 46.9012 140.017 48.8937 140.299C52.3585 140.788 55.8321 140.709 59.7245 140.436C53.9278 139.647 48.5455 139.065 43.1014 139.157C42.1625 139.175 41.1795 138.827 40.2847 138.47C39.91 138.32 39.716 137.711 39.284 137.085C41.8011 136.556 43.9214 137.262 46.0593 137.368C48.1003 137.473 50.1412 137.632 52.1954 137.769C52.3365 137.138 51.8163 137.09 51.4637 137.046C48.7659 136.689 46.0637 136.363 43.3659 136.041C41.7437 135.847 40.1171 135.701 38.4994 135.476C37.6133 135.353 37.6177 135.296 36.4275 133.859C36.8728 133.718 37.243 133.488 37.5957 133.506C39.7689 133.625 41.9421 133.793 44.1109 133.96C47.1437 134.194 50.1765 134.225 53.2534 133.744C52.8037 133.656 52.3541 133.488 51.9089 133.493C46.4384 133.555 41.0781 132.457 35.6605 131.963C35.2506 131.924 34.7877 131.769 34.4747 131.514C34.2103 131.302 34.1265 130.866 33.9017 130.407C37.5075 129.68 40.8004 131.174 44.2079 130.486C43.3792 130.293 42.5592 130.063 41.7261 129.909C40.8709 129.75 40.0069 129.662 39.1474 129.548C37.2078 129.287 35.2726 129.036 33.3375 128.759C32.8217 128.684 32.7776 128.582 32.3412 127.224C34.0692 126.687 35.7619 127.088 37.4635 127.286C42.1096 127.828 46.7602 128.357 51.4152 128.825C52.4687 128.93 53.5487 128.776 54.5758 128.741C54.7653 127.864 54.232 127.947 53.8661 127.943C49.3918 127.877 44.9881 127.216 40.5844 126.51C38.1203 126.114 35.6297 125.906 33.1567 125.549C32.306 125.426 31.4596 125.184 30.6617 124.871C30.3399 124.743 30.146 124.289 29.6346 123.667C32.6233 123.363 35.1007 124.231 37.6266 124.43C40.2273 124.632 42.8061 125.087 45.4025 125.347C47.9856 125.607 50.582 125.765 53.2534 125.977C53.2181 124.963 52.5392 125.038 52.1601 125.064C48.7438 125.289 45.4995 124.245 42.1757 123.799C38.8344 123.35 35.4974 122.878 32.1649 122.406C30.2253 122.133 28.2857 121.855 26.355 121.525C25.8877 121.445 25.4557 121.146 25.059 120.767C27.3997 120.462 29.617 121.106 31.874 121.331C33.0641 121.45 34.2411 121.688 35.4137 121.922C36.9213 122.226 38.3407 122.424 39.8438 121.604C40.6197 121.181 41.7526 121.313 42.7179 121.348C48.4794 121.56 54.2364 121.789 59.9934 122.08C62.1578 122.19 64.3133 122.49 66.4865 122.962C65.6666 123.01 64.8467 123.063 64.0224 123.112C63.2642 123.156 62.4972 123.275 61.7434 123.217C58.2786 122.953 54.8227 122.622 51.3579 122.354C50.1677 122.261 48.9643 122.212 47.7741 122.292C47.0555 122.34 46.2444 122.503 45.9976 123.649C47.2275 123.649 48.4 123.649 49.577 123.649C53.822 123.632 58.0758 123.456 62.2724 124.359C62.8014 124.474 63.4097 124.439 63.8593 124.685C65.4683 125.571 67.2183 125.545 68.9551 125.593C73.9627 125.739 78.9704 126.025 83.978 125.955C90.0612 125.867 96.1576 126.149 102.219 125.06C105.194 124.527 108.28 124.61 111.423 124.791C110.823 125.003 110.237 125.316 109.616 125.413C104.449 126.215 99.2521 126.726 94.0197 126.854C92.8251 126.885 91.6349 127.048 90.4447 127.15C88.9327 127.277 87.4163 127.485 85.9043 127.515C84.432 127.551 82.9906 127.705 81.5623 128.274C82.1927 128.274 82.8275 128.247 83.4578 128.274C89.2148 128.543 94.9674 128.869 100.729 129.076C103.338 129.168 105.957 129.032 108.571 129.01C109.598 129.001 110.625 129.01 111.657 129.133C110.123 129.746 108.584 130.01 106.944 130.116C100.337 130.539 93.742 131.139 86.9226 131.694C87.8836 132.624 88.8269 132.082 89.66 132.21C90.6166 132.356 91.6173 132.263 92.5915 132.223C94.1872 132.162 94.1872 132.144 95.157 132.977C94.1696 133.603 93.0763 133.581 92.0316 133.7C90.9913 133.823 89.9157 133.762 88.7828 134.401C90.5902 135.459 92.6179 133.753 94.3944 135.419C91.5688 136.49 88.7784 135.679 86.1909 136.662C87.9938 136.698 89.7967 136.715 91.5996 136.772C92.8868 136.812 94.1299 136.795 95.0203 138.13C95.3818 138.672 96.4133 138.774 97.3082 139.14C96.0562 139.281 94.9983 139.4 93.3761 139.585C94.9542 140.392 96.1488 140.065 97.2376 140.29C97.1362 140.533 97.0393 140.779 96.8365 141.282C98.8686 140.969 100.769 140.656 102.673 140.392C104.59 140.127 106.512 139.77 109.135 140.074C107.491 140.991 106.274 140.894 105.168 141.181C104.039 141.476 102.942 141.886 101.672 142.296C103.003 143.64 104.533 142.538 106.049 143.098C105.036 144.244 103.867 143.856 102.911 144.103C102.02 144.332 101.042 144.284 99.8693 145.17H104.048C102.633 145.959 101.699 145.871 100.804 145.902C99.8252 145.937 98.8422 145.941 97.8636 145.959H97.8724L97.9165 145.915C97.9165 145.915 97.89 145.915 97.8768 145.915C97.8768 145.919 97.8768 145.924 97.8768 145.928C97.1715 146.122 96.475 146.395 95.7565 146.488C94.2357 146.686 92.5386 145.906 91.2558 147.471C91.0354 147.74 90.2155 147.471 89.6909 147.564C89.4617 147.603 89.281 147.925 88.7035 148.467C94.8616 148.04 100.557 147.643 106.252 147.251C106.274 147.4 106.296 147.55 106.318 147.7C104.67 148.013 103.025 148.357 101.368 148.626C98.2559 149.124 98.2515 149.106 96.9246 150.01C98.3441 151.125 99.8252 149.856 101.289 150.129C102.66 150.385 104.07 150.42 106.151 150.623C102.364 151.385 99.0494 151.319 95.6154 152.752C97.458 153.259 98.8686 152.933 100.297 152.77C101.774 152.598 103.268 152.413 104.798 152.637C104.59 153.479 103.964 153.444 103.466 153.501C100.985 153.805 98.5072 154.105 96.0166 154.33C94.7118 154.449 93.4555 154.621 92.2124 155.124C91.15 155.555 89.9642 155.683 88.8357 155.943C88.7432 156.706 89.3162 156.627 89.6777 156.591C92.7017 156.278 95.7212 155.908 98.7452 155.582C100.147 155.432 101.558 155.326 102.964 155.229C103.114 155.22 103.281 155.414 103.647 155.644C102.232 156.627 100.632 156.323 99.2257 156.702C97.7622 157.094 96.2282 157.2 94.747 157.53C93.3056 157.852 91.7363 157.667 90.0215 158.593C91.2117 159.223 92.1506 158.928 93.0279 158.897C93.8919 158.866 94.7514 158.698 95.6154 158.606C96.5896 158.505 97.5638 158.425 98.538 158.328C99.3711 158.24 100.204 158.139 101.333 158.011C100.625 158.731 99.4578 159.138 97.8327 159.232C98.4454 159.465 98.873 159.629 99.7106 159.95C97.361 160.457 95.3994 160.889 93.429 161.304C91.4894 161.709 89.3779 161.559 87.769 163.093C91.0883 162.93 94.3239 162.084 97.6961 162.062C96.6293 164.464 96.4662 164.588 93.5524 165.306C93.7508 165.518 93.9492 165.729 94.2445 166.047C91.4453 166.862 88.752 167.77 85.7941 167.673C85.8382 167.903 85.8779 168.132 85.922 168.357C87.1606 168.277 88.3993 168.163 89.6424 168.123C90.8326 168.083 92.0272 168.114 93.3585 168.114C93.7067 168.859 94.0638 169.617 94.3679 170.265C93.7596 172.28 92.0272 172.853 90.4403 173.66C90.7004 174.18 90.8899 174.555 91.1059 174.982C92.4239 174.771 93.6758 174.568 95.0115 174.352C94.412 176.23 93.3364 177.737 91.7671 178.623C90.3653 179.417 88.9019 180.126 87.4031 180.699C86.0586 181.215 84.6304 181.065 83.2154 180.774C77.1057 179.509 71.2826 177.486 65.8694 174.339C64.8379 173.739 63.7932 173.1 62.6691 172.734C60.13 171.896 57.9789 170.473 55.9776 168.767C56.1539 168.577 56.3346 168.388 56.511 168.198C56.2641 168.233 56.0084 168.255 55.7704 168.317C55.7175 168.33 55.6999 168.498 55.669 168.595C54.8579 168.044 54.1041 167.378 53.2313 166.959C47.5581 164.222 42.9912 159.994 38.2834 155.952C36.5554 154.467 34.7216 153.105 32.998 151.619C32.0106 150.768 31.054 149.856 30.2385 148.846C27.6466 145.624 24.9444 142.463 22.6301 139.047C20.3159 135.631 18.4071 131.937 16.3353 128.353C15.2994 126.563 14.2459 124.778 13.2761 122.949C12.4121 121.313 11.6186 119.643 10.8516 117.959C10.3579 116.87 10.0626 115.684 9.52036 114.622C7.76152 111.183 6.84022 107.48 6.13492 103.734C4.83011 96.7776 3.62229 89.8039 2.45854 82.8259C2.10149 80.6835 1.83259 78.4971 1.83259 76.3283C1.82818 70.8842 1.59014 65.427 2.52467 60.0182C2.6525 59.2688 2.68336 58.5018 2.70099 57.7392C2.82883 51.5987 4.10277 45.6301 5.4737 39.6835C6.42585 35.5487 7.47499 31.4359 8.40951 27.2923C9.49832 22.461 12.2534 18.6127 15.5022 14.7821C16.9833 15.5887 18.3851 16.3734 19.8045 17.1228C20.3776 17.4269 20.9683 17.7355 21.5854 17.8986C23.7674 18.4717 25.9627 18.9786 28.3386 19.1505C28.0609 18.9345 27.8097 18.648 27.4923 18.5157C25.8921 17.8413 24.2699 17.2153 22.661 16.5541C21.3562 16.0163 20.0602 15.4697 18.7774 14.8834C18.1911 14.619 17.6181 14.3016 17.1156 13.9048C16.9392 13.7682 16.8819 13.2657 16.9921 13.0453C17.0979 12.8337 17.4858 12.7102 17.768 12.6573C17.9487 12.6221 18.1823 12.7631 18.3631 12.8777C21.2327 14.7027 24.3449 16.0031 27.5628 17.0302C29.52 17.6562 31.5301 18.2777 33.5579 18.4981C37.0138 18.8772 40.5095 18.9081 43.9831 19.1373C48.4353 19.4326 52.8787 19.8823 57.3309 20.0762C61.5671 20.2658 65.8165 20.2834 70.0571 20.2437C73.6453 20.2085 77.2291 19.9969 80.8174 19.8338C86.473 19.5781 92.1242 19.3048 97.7798 19.0183C101.152 18.8463 104.524 18.7141 107.888 18.4364C111.573 18.1322 115.267 17.8237 118.917 17.255C123.964 16.466 128.989 15.4918 133.997 14.4735C136.117 14.0415 138.176 13.2921 140.261 12.6926C141.799 12.2518 143.316 11.7096 145.224 11.595C144.731 13.2921 143.386 13.2789 142.421 13.7506C141.367 14.2619 140.292 14.7203 138.603 15.4829C141.742 15.9634 143.818 14.3324 146.282 14.3324C147.217 15.2052 147.618 16.4571 148.077 17.6473C150.113 22.9547 151.629 28.4032 152.467 34.0323C153.027 37.8013 153.648 41.5482 154.715 45.229C156.126 50.0867 156.046 55.1384 156.302 60.1416C156.5 64.0561 156.946 67.9573 157.069 71.8717C157.188 75.6759 157.06 79.4889 156.999 83.2931H156.968ZM27.8141 103.756H27.1837C27.1969 103.703 27.219 103.606 27.2278 103.61C27.3204 103.623 27.4129 103.65 27.8185 103.756H27.8141ZM23.0489 102.261C22.3744 102.394 21.6956 102.521 21.0212 102.654C21.6603 102.389 22.2995 102.129 22.9343 101.865C22.974 101.997 23.0092 102.129 23.0489 102.261ZM20.6994 102.781C20.62 103.064 20.5847 103.39 20.4084 103.575C20.2409 103.747 19.8794 103.725 19.6061 103.791C19.6943 103.544 19.7075 103.205 19.8839 103.068C20.0999 102.896 20.4172 102.861 20.7038 102.777L20.6994 102.781ZM57.3 119.695C56.5242 119.66 55.7484 119.625 54.9725 119.59C55.7748 119.281 56.5418 119.378 57.3 119.695ZM29.0528 127.564C28.8279 127.379 28.6825 127.101 28.5061 126.859C28.7486 126.784 29.0748 126.572 29.207 126.66C29.4274 126.806 29.5244 127.141 29.6875 127.418C29.4098 127.489 29.1409 127.634 29.0528 127.564ZM32.1076 137.83C30.4634 137.482 29.1409 137.5 28.5987 135.97C31.0011 135.454 31.0893 135.494 32.1076 137.83ZM29.1189 133.854C27.9948 134.035 27.0823 133.907 26.474 132.792C28.2857 132.06 28.5238 132.153 29.1189 133.854ZM27.2013 124.54C26.9104 124.478 26.6283 124.245 26.4123 124.02C26.2889 123.888 26.2227 123.579 26.2933 123.425C26.3638 123.275 26.7032 123.09 26.809 123.143C27.2278 123.359 27.6025 123.663 28.2505 124.108C27.6774 124.359 27.4085 124.584 27.2013 124.54ZM26.7782 129.433C26.9324 129.645 26.8972 129.993 26.9898 130.504C26.3947 130.469 26.1654 130.504 25.9803 130.434C25.3103 130.178 24.4683 130.09 24.4286 129.12C24.4242 128.979 24.6579 128.741 24.821 128.697C25.6365 128.476 26.3021 128.789 26.7782 129.437V129.433ZM23.0753 117.707C24.4771 117.033 25.6144 118.012 26.8178 118.117C28.1138 118.232 29.401 118.413 30.6882 118.593C31.874 118.761 33.0509 118.986 34.2367 119.144C35.5107 119.316 36.7934 119.435 38.0057 119.568C38.3539 120.648 37.7456 120.983 37.1108 121.053C36.3702 121.137 35.59 121.053 34.845 120.925C32.0591 120.454 29.282 119.942 26.5049 119.422C24.7857 119.1 24.314 118.849 23.0797 117.699L23.0753 117.707ZM23.3486 126.753C23.2561 126.766 23.1062 126.713 23.0577 126.643C22.9431 126.471 22.7888 126.255 22.8197 126.083C22.8417 125.942 23.1018 125.836 23.2517 125.721C23.3663 125.721 23.4721 125.704 23.5779 125.721C24.098 125.814 24.4903 126.325 24.2126 126.537C23.9966 126.704 23.644 126.704 23.3486 126.748V126.753ZM23.4941 132.373C23.1723 132.272 22.899 132.237 22.6874 132.1C22.5728 132.025 22.564 131.782 22.5067 131.615C22.7756 131.65 23.0621 131.637 23.3002 131.738C23.4059 131.782 23.4059 132.065 23.4897 132.373H23.4941ZM36.4231 117.562C31.9313 116.87 27.316 116.843 23.0048 115.164C22.7271 115.058 22.467 114.913 22.0835 114.727C22.4362 114.626 22.6433 114.498 22.8285 114.525C31.6756 115.874 40.5183 117.236 49.3654 118.598C49.3522 118.708 49.3389 118.814 49.3301 118.924C48.5807 118.889 47.827 118.893 47.0864 118.809C43.529 118.413 39.9629 118.104 36.4275 117.557L36.4231 117.562ZM22.0482 123.456C21.7132 123.262 21.365 123.085 21.052 122.856C21.0212 122.834 21.1975 122.525 21.3606 122.164C21.6956 122.446 22.013 122.671 22.2642 122.953C22.3127 123.01 22.1276 123.279 22.0482 123.451V123.456ZM19.108 116.932C18.9714 117.037 18.7642 117.253 18.7069 117.218C18.5438 117.125 18.416 116.936 18.341 116.76C18.3234 116.716 18.6496 116.451 18.6937 116.477C18.8612 116.583 18.9714 116.773 19.108 116.927V116.932ZM33.3683 141.538C34.4174 141.538 34.8098 141.502 35.1889 141.555C35.3343 141.577 35.4534 141.811 35.5812 141.943C35.3564 142.049 35.1139 142.274 34.9156 142.239C34.5761 142.181 34.2676 141.961 33.3683 141.533V141.538ZM41.7129 148.934C39.8703 149.336 38.5479 148.974 37.243 147.123C39.4383 146.651 40.774 147.017 41.7129 148.934ZM39.403 142.763C39.5882 142.543 39.6984 142.3 39.8086 142.305C39.9849 142.305 40.2141 142.433 40.3067 142.578C40.3728 142.684 40.2538 142.909 40.2185 143.081C39.9585 142.979 39.6984 142.878 39.403 142.763ZM47.6021 154.656C47.1525 155.062 46.8484 155.331 46.4869 155.657C45.3452 155.031 44.3534 154.542 43.4894 153.334C45.0675 153.153 46.2488 153.166 47.6021 154.652V154.656ZM44.2432 148.198C45.8609 147.696 46.9057 148.212 47.8358 150.023C46.1254 149.788 44.9279 149.18 44.2432 148.198ZM41.4837 145.214C42.4446 144.892 43.1191 145.104 43.745 145.721C43.0809 146.003 42.3271 145.834 41.4837 145.214ZM42.3653 151.54C42.1757 151.509 41.9818 151.478 41.7878 151.443C41.876 151.39 41.9553 151.31 42.0479 151.288C42.1493 151.266 42.2639 151.288 42.3609 151.328C42.3829 151.337 42.3609 151.465 42.3609 151.54H42.3653ZM35.7134 144.372C36.4408 144.068 37.1328 143.971 37.8117 144.628C36.8816 145.377 36.3526 144.562 35.7134 144.372ZM48.8452 151.857C48.9819 151.756 49.1185 151.654 49.3257 151.5C49.4844 151.703 49.6387 151.901 49.7974 152.104C49.6122 152.144 49.4095 152.245 49.242 152.205C49.0921 152.17 48.9775 151.98 48.8452 151.857ZM50.2029 154.145C51.3535 153.797 52.213 153.713 52.9801 154.819C51.8428 155.181 50.992 155.229 50.2029 154.145ZM53.8837 152.338C53.8088 152.338 53.7294 152.219 53.6501 152.157C53.8485 152.117 54.0424 152.06 54.2408 152.051C54.3113 152.051 54.3907 152.166 54.4612 152.227C54.2672 152.267 54.0777 152.333 53.8793 152.338H53.8837ZM57.3132 157.746C56.9518 158.068 56.6035 158.557 56.2156 158.597C55.4222 158.672 54.5626 158.531 54.135 157.601C55.2855 156.684 56.2773 157.715 57.3176 157.746H57.3132Z" fill="black"/>
<path d="M134.151 22.0156C134.279 22.8047 134.283 23.3292 134.459 23.7921C134.958 25.1189 135.531 26.4149 136.06 27.7241C137.413 31.0611 138.674 34.4289 139.106 38.0347C139.419 40.6267 139.555 43.2452 139.965 45.8195C140.23 47.4681 140.124 49.0507 139.978 50.6861C139.674 54.1288 139.511 57.5848 139.273 61.2832C140.309 59.7712 140.794 56.8795 141.045 52.3788C141.627 41.9271 139.432 32.0309 135.218 22.527C135.134 22.333 134.728 22.2845 134.146 22.0156H134.151Z" fill="black"/>
<path d="M138.485 16.4438C138.436 17.4357 138.255 18.0969 138.41 18.67C138.687 19.7103 139.15 20.7065 139.565 21.7116C142.54 28.888 144.682 36.2495 144.696 44.1136C144.696 45.2642 144.982 46.4191 145.132 47.5696C146.093 36.9989 143.497 27.1027 139.631 17.4489C139.503 17.1271 139.058 16.9331 138.485 16.4438Z" fill="black"/>
<path d="M58.6977 21.0019C53.1434 21.2444 47.6685 20.5258 42.1937 19.7368C41.1357 19.5825 40.0557 19.2872 39.0727 19.9528C38.9316 20.949 39.6458 21.068 40.2761 21.1298C45.0149 21.6147 49.7624 22.0687 54.5055 22.5315C54.7215 22.5536 54.9375 22.5227 55.1579 22.5183C57.6529 22.4698 60.1479 22.4302 62.6429 22.3596C62.9956 22.3508 63.3394 22.1921 64.4238 21.91C62.0919 21.0152 60.3992 20.927 58.7021 21.0019H58.6977Z" fill="black"/>
<path d="M149.412 53.4678C148.993 53.7675 148.645 53.891 148.534 54.1246C148.411 54.3935 148.464 54.7594 148.49 55.0811C148.878 60.1549 149.266 65.2331 149.672 70.3068C149.703 70.7168 149.822 71.1179 149.901 71.5279C150.117 71.5323 150.337 71.5411 150.553 71.5455C150.351 66.1676 150.346 60.7853 149.971 55.4162C149.927 54.8078 149.636 54.2172 149.412 53.4722V53.4678Z" fill="black"/>
<path d="M16.8953 20.9492C14.9204 25.1325 13.5848 29.4789 13.4834 34.1515C14.0476 32.8731 14.4356 31.5463 14.7882 30.2062C15.1453 28.8485 15.3789 27.4511 15.8417 26.1287C16.3002 24.8063 17.0231 23.5764 17.5345 22.2672C18.0105 21.055 19.3242 20.1204 18.9759 18.4321C17.6359 19.5298 17.4683 19.7281 16.8909 20.9448L16.8953 20.9492Z" fill="black"/>
<path d="M73.9713 21.5705C73.3365 21.5617 72.6709 21.8482 72.9486 22.7739C75.1747 23.2544 79.7327 23.2544 83.2328 22.3199C82.6289 22.17 82.0338 21.9188 81.4255 21.8835C78.9437 21.738 76.4531 21.6146 73.9669 21.5749L73.9713 21.5705Z" fill="black"/>
<path d="M142.249 64.5278C142.196 66.4806 142.372 68.213 142.606 70.2187C143.946 66.2823 143.928 65.6299 142.249 64.5278Z" fill="black"/>
<path d="M11.7511 43.0953C11.2971 44.334 10.8695 45.6256 10.9224 47.0318C11.5043 45.9165 12.1479 44.8233 12.6284 43.6683C12.8135 43.2231 12.3947 42.919 11.7467 43.0953H11.7511Z" fill="black"/>
<path d="M10.9269 47.1287C10.9269 47.0979 10.9269 47.067 10.9269 47.0317C10.9136 47.0538 10.9048 47.0758 10.8916 47.0935L10.9269 47.1243V47.1287Z" fill="black"/>
<path d="M9.97467 54.6977C10.1069 53.0623 10.2083 51.8236 10.3097 50.5981C9.58235 51.7575 9.7763 53.0226 9.97467 54.6977Z" fill="black"/>
<path d="M142.549 75.1911C142.633 75.1999 142.716 75.2088 142.8 75.2176V73.3794C142.716 73.3794 142.633 73.3838 142.549 73.3882V75.1911Z" fill="black"/>
<path d="M81.3725 148.106C81.0067 148.132 80.5174 147.863 80.2705 148.666C80.7378 148.63 81.1213 148.608 81.5004 148.564C81.5885 148.555 81.6635 148.45 81.7472 148.388C81.6238 148.287 81.4916 148.097 81.3725 148.106Z" fill="black"/>
<path d="M97.3473 144.861C97.1225 144.861 96.8933 145.174 96.6641 145.342C96.9726 145.523 97.2812 145.708 97.5986 145.88C97.6735 145.919 97.7705 145.915 97.8631 145.919C97.9645 145.434 98.1716 144.87 97.3473 144.866V144.861Z" fill="black"/>
<path d="M10.3487 50.51L10.3223 50.4836C10.3223 50.5233 10.3179 50.5585 10.3135 50.5982C10.3311 50.5718 10.3443 50.5453 10.362 50.5189C10.5515 49.3904 10.7411 48.2575 10.9306 47.129C10.9306 47.129 10.8953 47.0982 10.8953 47.0938C10.7058 48.2222 10.5163 49.3507 10.3267 50.4792C10.3267 50.4792 10.3443 50.4968 10.3576 50.51H10.3487Z" fill="black"/>
<path d="M85.3623 134.211C84.7099 134.242 84.247 134.264 83.7842 134.286C84.2779 134.74 84.776 135.124 85.3623 134.211Z" fill="black"/>
<path d="M89.6119 140.25H88.4658C88.4658 140.312 88.4658 140.378 88.4658 140.44H89.6119C89.6119 140.378 89.6119 140.312 89.6119 140.25Z" fill="black"/>
<path d="M94.6104 150.16C94.4562 150.059 94.2975 149.878 94.1432 149.878C93.9713 149.878 93.8038 150.05 93.6318 150.147C93.8302 150.292 94.0153 150.482 94.2357 150.552C94.3107 150.574 94.4826 150.297 94.6104 150.156V150.16Z" fill="black"/>
<path d="M76.8591 359.612C76.1009 359.612 75.616 359.991 75.8805 360.961C77.2073 361.807 78.7502 361.569 80.2489 361.534C83.5021 361.454 86.7509 361.097 90.0085 361.56C91.3706 361.754 91.9746 361.49 93.4248 360.661C90.7138 360.348 88.0337 359.925 85.3359 359.753C82.5191 359.577 79.6847 359.621 76.8591 359.612Z" fill="black"/>
<path d="M58.9048 354.763C55.515 355.437 52.178 356.363 48.6956 356.557C47.7479 356.61 46.8001 356.971 45.892 357.302C45.4688 357.456 45.3013 357.893 45.7422 358.298C48.0829 357.919 50.4192 357.567 52.7467 357.157C55.1447 356.733 57.6265 356.619 60.5534 355.12C59.4911 354.882 59.1737 354.71 58.9048 354.767V354.763Z" fill="black"/>
<path d="M63.1318 354.181C64.325 354.29 65.4373 354.036 66.4688 353.418C65.0229 352.894 64.1986 354.044 63.1318 354.181Z" fill="black"/>
<path d="M69.2549 352.488C70.4098 352.581 71.1063 352.083 71.6926 351.355C70.7801 351.4 69.8147 351.355 69.2549 352.488Z" fill="black"/>
<path d="M65.3848 355.913C66.0284 355.856 66.4207 355.821 67.5315 355.72C66.2532 355.221 65.8256 355.16 65.3848 355.913Z" fill="black"/>
<path d="M102.832 104.646C103.682 104.743 104.577 104.769 105.415 104.62C111.11 103.606 116.871 103.473 122.624 103.271C125.639 103.165 128.672 103.399 131.696 103.482C131.696 103.557 131.696 103.637 131.696 103.711C128.509 104.113 125.322 104.514 122.135 104.915C122.554 105.325 122.968 105.439 123.373 105.426C127.711 105.254 132.049 105.074 136.386 104.871C137.36 104.827 138.339 104.725 139.309 104.606C140.239 104.492 140.896 103.989 141.297 102.9C131.343 101.869 121.447 101.97 111.472 102.085C112.067 101.913 112.648 101.701 113.252 101.574C114.205 101.371 115.179 101.256 116.122 101.027C116.373 100.965 116.766 100.551 116.722 100.41C116.611 100.044 116.365 99.634 116.047 99.44C115.703 99.224 115.218 99.1447 114.8 99.1535C112.194 99.202 109.585 99.2946 106.98 99.3563C105.556 99.3915 104.383 99.9514 103.801 101.239C103.453 102.006 102.986 102.429 102.298 102.817C102.034 102.962 101.822 103.584 101.915 103.879C102.02 104.21 102.479 104.615 102.827 104.655L102.832 104.646Z" fill="black"/>
<path d="M97.7975 104.937C97.5639 104.985 97.3391 105.074 97.1143 105.144H98.0223C97.9209 105.047 97.846 104.928 97.7975 104.937Z" fill="black"/>
<path d="M98.0571 103.183C97.9778 103.108 97.9028 103.006 97.8103 102.967C97.753 102.944 97.6604 103.028 97.5811 103.064C97.6516 103.112 97.7221 103.156 97.7882 103.205L98.0571 103.183Z" fill="black"/>
<path d="M83.2331 210.556C83.2067 210.556 83.1847 210.556 83.1582 210.556V211.38C83.1847 211.38 83.2067 211.38 83.2331 211.38V210.556Z" fill="black"/>
</g>
</svg>
