<svg width="30" height="31" viewBox="0 0 30 31" fill="none" xmlns="http://www.w3.org/2000/svg">
<path d="M19.4938 5.94043H10.5063C7.60628 5.94043 5.25586 8.29126 5.25586 11.1913V20.1779C5.25586 23.0779 7.60669 25.4288 10.5067 25.4288H19.4934C22.3934 25.4288 24.7442 23.0779 24.7442 20.1779V11.1913C24.7442 8.29126 22.3938 5.94043 19.4938 5.94043Z" stroke="#8C141F" stroke-width="0.833333" stroke-miterlimit="10"/>
<path d="M15.0001 20.3888C17.5981 20.3888 19.7042 18.2827 19.7042 15.6846C19.7042 13.0866 17.5981 10.9805 15.0001 10.9805C12.402 10.9805 10.2959 13.0866 10.2959 15.6846C10.2959 18.2827 12.402 20.3888 15.0001 20.3888Z" stroke="#8C141F" stroke-width="0.833333" stroke-miterlimit="10"/>
<path d="M20.712 10.9804C21.2687 10.9804 21.7199 10.5292 21.7199 9.97252C21.7199 9.41586 21.2687 8.9646 20.712 8.9646C20.1554 8.9646 19.7041 9.41586 19.7041 9.97252C19.7041 10.5292 20.1554 10.9804 20.712 10.9804Z" fill="#8C141F"/>
</svg>
