<svg xmlns="http://www.w3.org/2000/svg" width="512" height="512" viewBox="0 0 256 256" xml:space="preserve"><g fill="#FFFBF7"><path d="M188.385 248.941H67.615a60.626 60.626 0 0 1-60.558-60.556V67.615A60.626 60.626 0 0 1 67.615 7.06h120.77a60.626 60.626 0 0 1 60.558 60.556v120.77a60.626 60.626 0 0 1-60.558 60.556zM67.615 17.1A50.573 50.573 0 0 0 17.1 67.615v120.77A50.573 50.573 0 0 0 67.615 238.9h120.77a50.573 50.573 0 0 0 50.516-50.516V67.615A50.573 50.573 0 0 0 188.385 17.1z" data-original="#000000"/><path d="M128 189.846a61.846 61.846 0 1 1 61.846-61.847A61.916 61.916 0 0 1 128 189.846m0-113.65a51.805 51.805 0 1 0 51.804 51.803A51.86 51.86 0 0 0 128 76.195zm64.088-.18a18.004 18.004 0 1 1 18.005-18.004 18.025 18.025 0 0 1-18.005 18.004m0-25.968a7.963 7.963 0 1 0 7.963 7.964 7.973 7.973 0 0 0-7.963-7.964" data-original="#000000"/></g></svg>