<svg width="21" height="21" viewBox="0 0 21 21" fill="none" xmlns="http://www.w3.org/2000/svg">
<path d="M19.7559 20.6922L11.9284 12.8647C11.3034 13.3972 10.5847 13.8093 9.77217 14.1009C8.95967 14.3926 8.143 14.5384 7.32217 14.5384C5.3205 14.5384 3.62633 13.8455 2.23967 12.4597C0.853001 11.0739 0.159668 9.38011 0.159668 7.37844C0.159668 5.37677 0.852168 3.68219 2.23717 2.29469C3.62217 0.90719 5.3155 0.212607 7.31717 0.21094C9.31884 0.209274 11.0138 0.902607 12.4022 2.29094C13.7905 3.67927 14.4847 5.37386 14.4847 7.37469C14.4847 8.24302 14.3309 9.08344 14.0234 9.89594C13.7159 10.7084 13.3118 11.4034 12.8109 11.9809L20.6384 19.8072L19.7559 20.6922ZM7.32342 13.2872C8.98175 13.2872 10.3818 12.7164 11.5234 11.5747C12.6651 10.433 13.2359 9.03261 13.2359 7.37344C13.2359 5.71427 12.6651 4.31427 11.5234 3.17344C10.3818 2.03261 8.98175 1.46177 7.32342 1.46094C5.66508 1.46011 4.26467 2.03094 3.12217 3.17344C1.97967 4.31594 1.40883 5.71594 1.40967 7.37344C1.4105 9.03094 1.98133 10.4309 3.12217 11.5734C4.263 12.7159 5.663 13.2868 7.32217 13.2859" fill="#8C141F"/>
</svg>
