<svg width="24" height="21" viewBox="0 0 24 21" fill="none" xmlns="http://www.w3.org/2000/svg">
<path d="M22.3125 0.65625H1.6875C1.31454 0.65625 0.956854 0.804408 0.693131 1.06813C0.429408 1.33185 0.28125 1.68954 0.28125 2.0625V18.9375C0.28125 19.3105 0.429408 19.6681 0.693131 19.9319C0.956854 20.1956 1.31454 20.3438 1.6875 20.3438H22.3125C22.6855 20.3438 23.0431 20.1956 23.3069 19.9319C23.5706 19.6681 23.7188 19.3105 23.7188 18.9375V2.0625C23.7188 1.68954 23.5706 1.33185 23.3069 1.06813C23.0431 0.804408 22.6855 0.65625 22.3125 0.65625ZM22.7812 18.9375C22.7812 19.0618 22.7319 19.181 22.644 19.269C22.556 19.3569 22.4368 19.4062 22.3125 19.4062H1.6875C1.56318 19.4062 1.44395 19.3569 1.35604 19.269C1.26814 19.181 1.21875 19.0618 1.21875 18.9375V2.0625C1.21875 1.93818 1.26814 1.81895 1.35604 1.73104C1.44395 1.64314 1.56318 1.59375 1.6875 1.59375H22.3125C22.4368 1.59375 22.556 1.64314 22.644 1.73104C22.7319 1.81895 22.7812 1.93818 22.7812 2.0625V18.9375ZM17.1562 5.8125C17.1562 7.18002 16.613 8.49154 15.646 9.45852C14.679 10.4255 13.3675 10.9688 12 10.9688C10.6325 10.9688 9.32096 10.4255 8.35398 9.45852C7.387 8.49154 6.84375 7.18002 6.84375 5.8125C6.84375 5.68818 6.89314 5.56895 6.98104 5.48104C7.06895 5.39314 7.18818 5.34375 7.3125 5.34375C7.43682 5.34375 7.55605 5.39314 7.64396 5.48104C7.73186 5.56895 7.78125 5.68818 7.78125 5.8125C7.78125 6.93138 8.22572 8.00444 9.01689 8.79561C9.80806 9.58678 10.8811 10.0312 12 10.0312C13.1189 10.0312 14.1919 9.58678 14.9831 8.79561C15.7743 8.00444 16.2188 6.93138 16.2188 5.8125C16.2188 5.68818 16.2681 5.56895 16.356 5.48104C16.444 5.39314 16.5632 5.34375 16.6875 5.34375C16.8118 5.34375 16.931 5.39314 17.019 5.48104C17.1069 5.56895 17.1562 5.68818 17.1562 5.8125Z" fill="#8C141F"/>
</svg>
