<svg width="22" height="22" viewBox="0 0 22 22" fill="none" xmlns="http://www.w3.org/2000/svg">
<path d="M20.356 21.1925L12.5285 13.365C11.9035 13.8975 11.1848 14.3096 10.3723 14.6012C9.55977 14.8929 8.7431 15.0387 7.92227 15.0387C5.9206 15.0387 4.22643 14.3458 2.83977 12.96C1.4531 11.5742 0.759766 9.88041 0.759766 7.87875C0.759766 5.87708 1.45227 4.1825 2.83727 2.795C4.22227 1.4075 5.9156 0.712912 7.91727 0.711246C9.91893 0.709579 11.6139 1.40291 13.0023 2.79125C14.3906 4.17958 15.0848 5.87416 15.0848 7.875C15.0848 8.74333 14.931 9.58375 14.6235 10.3962C14.316 11.2087 13.9118 11.9037 13.411 12.4812L21.2385 20.3075L20.356 21.1925ZM7.92351 13.7875C9.58185 13.7875 10.9818 13.2167 12.1235 12.075C13.2652 10.9333 13.836 9.53291 13.836 7.87374C13.836 6.21458 13.2652 4.81458 12.1235 3.67375C10.9818 2.53291 9.58185 1.96208 7.92351 1.96125C6.26518 1.96041 4.86477 2.53125 3.72227 3.67375C2.57977 4.81625 2.00893 6.21625 2.00977 7.87374C2.0106 9.53125 2.58143 10.9312 3.72227 12.0737C4.8631 13.2162 6.2631 13.7871 7.92227 13.7862" fill="#FFFBF7"/>
</svg>
