<svg width="24" height="20" viewBox="0 0 24 20" fill="none" xmlns="http://www.w3.org/2000/svg">
<path d="M22.3125 0.15625H1.6875C1.31454 0.15625 0.956854 0.304408 0.693131 0.568131C0.429408 0.831854 0.28125 1.18954 0.28125 1.5625V18.4375C0.28125 18.8105 0.429408 19.1681 0.693131 19.4319C0.956854 19.6956 1.31454 19.8438 1.6875 19.8438H22.3125C22.6855 19.8438 23.0431 19.6956 23.3069 19.4319C23.5706 19.1681 23.7188 18.8105 23.7188 18.4375V1.5625C23.7188 1.18954 23.5706 0.831854 23.3069 0.568131C23.0431 0.304408 22.6855 0.15625 22.3125 0.15625ZM22.7812 18.4375C22.7812 18.5618 22.7319 18.681 22.644 18.769C22.556 18.8569 22.4368 18.9062 22.3125 18.9062H1.6875C1.56318 18.9062 1.44395 18.8569 1.35604 18.769C1.26814 18.681 1.21875 18.5618 1.21875 18.4375V1.5625C1.21875 1.43818 1.26814 1.31895 1.35604 1.23104C1.44395 1.14314 1.56318 1.09375 1.6875 1.09375H22.3125C22.4368 1.09375 22.556 1.14314 22.644 1.23104C22.7319 1.31895 22.7812 1.43818 22.7812 1.5625V18.4375ZM17.1562 5.3125C17.1562 6.68002 16.613 7.99154 15.646 8.95852C14.679 9.9255 13.3675 10.4688 12 10.4688C10.6325 10.4688 9.32096 9.9255 8.35398 8.95852C7.387 7.99154 6.84375 6.68002 6.84375 5.3125C6.84375 5.18818 6.89314 5.06895 6.98104 4.98104C7.06895 4.89314 7.18818 4.84375 7.3125 4.84375C7.43682 4.84375 7.55605 4.89314 7.64396 4.98104C7.73186 5.06895 7.78125 5.18818 7.78125 5.3125C7.78125 6.43138 8.22572 7.50444 9.01689 8.29561C9.80806 9.08678 10.8811 9.53125 12 9.53125C13.1189 9.53125 14.1919 9.08678 14.9831 8.29561C15.7743 7.50444 16.2188 6.43138 16.2188 5.3125C16.2188 5.18818 16.2681 5.06895 16.356 4.98104C16.444 4.89314 16.5632 4.84375 16.6875 4.84375C16.8118 4.84375 16.931 4.89314 17.019 4.98104C17.1069 5.06895 17.1562 5.18818 17.1562 5.3125Z" fill="#FFFBF7"/>
</svg>
