<?xml version="1.0" standalone="no"?>
<!DOCTYPE svg PUBLIC "-//W3C//DTD SVG 20010904//EN"
 "http://www.w3.org/TR/2001/REC-SVG-20010904/DTD/svg10.dtd">
<svg version="1.0" xmlns="http://www.w3.org/2000/svg"
 width="952.000000pt" height="952.000000pt" viewBox="0 0 952.000000 952.000000"
 preserveAspectRatio="xMidYMid meet">
<metadata>
Created by potrace 1.14, written by Peter Selinger 2001-2017
</metadata>
<g transform="translate(0.000000,952.000000) scale(0.100000,-0.100000)"
fill="#000000" stroke="none">
<path d="M8220 8001 c0 -3 -21 -7 -48 -9 -65 -3 -150 -17 -182 -29 -8 -3 -26
-7 -40 -8 -14 -1 -27 -4 -30 -5 -3 -2 -9 -4 -15 -5 -5 -1 -17 -4 -25 -7 -8 -3
-35 -11 -60 -19 -25 -7 -49 -16 -55 -20 -5 -3 -18 -5 -27 -4 -10 2 -18 0 -18
-4 0 -4 -6 -8 -12 -8 -7 -1 -39 -11 -70 -22 -32 -12 -64 -21 -73 -21 -8 0 -15
-5 -15 -11 0 -5 -5 -7 -10 -4 -6 4 -17 1 -25 -5 -8 -6 -19 -9 -25 -5 -5 3 -10
1 -10 -5 0 -7 -7 -10 -15 -6 -8 3 -15 1 -15 -4 0 -6 -4 -10 -9 -10 -5 0 -22
-5 -38 -12 -32 -13 -52 -19 -70 -20 -7 -1 -13 -5 -13 -10 0 -5 -6 -8 -12 -7
-7 1 -29 -5 -48 -14 -19 -8 -38 -13 -42 -11 -5 3 -8 0 -8 -6 0 -6 -4 -9 -9 -6
-5 4 -11 3 -13 -1 -1 -5 -37 -19 -78 -32 -41 -14 -84 -31 -96 -38 -11 -7 -24
-10 -27 -6 -4 3 -7 2 -7 -4 0 -10 -22 -20 -65 -29 -11 -3 -21 -9 -23 -14 -2
-6 -11 -10 -21 -10 -9 0 -22 -5 -29 -12 -7 -7 -12 -8 -12 -2 0 5 -4 3 -8 -4
-5 -7 -18 -14 -30 -17 -11 -2 -29 -8 -39 -13 -10 -6 -21 -11 -25 -12 -4 -1
-17 -4 -28 -7 -11 -3 -20 -10 -20 -16 0 -6 -3 -7 -6 -4 -4 3 -16 1 -28 -5 -11
-7 -23 -13 -26 -13 -10 -3 -65 -30 -70 -35 -8 -9 -64 -34 -72 -32 -5 1 -8 -2
-8 -6 0 -5 -25 -19 -55 -31 -30 -13 -55 -27 -55 -32 0 -5 -3 -8 -7 -7 -14 4
-53 -13 -53 -23 0 -5 -3 -9 -7 -8 -16 2 -53 -14 -53 -23 0 -5 -4 -6 -10 -3 -5
3 -10 1 -10 -4 0 -6 -6 -11 -14 -11 -8 0 -21 -6 -28 -14 -8 -7 -24 -17 -36
-20 -12 -4 -22 -12 -22 -17 0 -6 -4 -7 -10 -4 -5 3 -10 1 -10 -4 0 -6 -7 -11
-15 -11 -8 0 -15 -5 -15 -11 0 -5 -4 -8 -8 -5 -5 3 -18 -3 -28 -12 -10 -10
-35 -27 -54 -38 -19 -10 -37 -21 -40 -24 -3 -3 -38 -27 -77 -54 -40 -27 -73
-54 -73 -59 0 -6 -3 -8 -6 -4 -7 6 -21 -4 -59 -43 -14 -14 -25 -22 -25 -18 0
4 -11 -3 -23 -15 -13 -12 -38 -33 -56 -46 -43 -32 -298 -287 -318 -318 -10
-15 -17 -49 -18 -86 -2 -34 -4 -62 -5 -62 -1 0 -4 -13 -5 -30 -2 -16 -4 -32
-5 -35 -1 -3 -3 -9 -4 -15 -6 -35 -28 -95 -36 -100 -6 -4 -8 -11 -5 -16 4 -5
1 -9 -6 -9 -7 0 -9 -3 -6 -6 3 -4 0 -16 -8 -28 -8 -11 -15 -26 -15 -32 0 -7
-22 -47 -50 -88 -28 -42 -50 -78 -50 -81 0 -5 -32 -44 -57 -71 -7 -7 -13 -15
-13 -18 0 -3 -22 -28 -50 -56 -27 -27 -47 -50 -44 -50 3 0 -9 -15 -28 -33 -40
-41 -98 -107 -92 -107 2 0 -18 -21 -44 -48 -26 -26 -57 -60 -69 -76 -13 -16
-23 -26 -23 -22 0 4 -21 -19 -47 -51 -26 -32 -54 -63 -62 -70 -9 -7 -13 -13
-9 -13 4 0 -6 -14 -22 -30 -17 -17 -30 -35 -30 -41 0 -6 -4 -7 -10 -4 -5 3
-10 -1 -10 -9 0 -9 -5 -16 -12 -16 -6 0 -9 -3 -5 -6 3 -3 2 -17 -3 -30 -6 -15
-6 -24 0 -24 6 0 10 -6 10 -13 0 -7 9 -23 19 -34 11 -12 17 -24 14 -27 -4 -3
-1 -6 6 -6 8 0 11 -8 8 -20 -3 -11 -1 -23 4 -26 5 -3 5 -13 1 -22 -5 -9 -7
-28 -6 -42 1 -14 -3 -31 -8 -37 -6 -7 -7 -13 -3 -13 4 0 2 -7 -5 -15 -7 -8 -9
-15 -5 -15 4 0 2 -7 -5 -15 -6 -8 -9 -19 -5 -25 3 -5 2 -10 -2 -10 -5 0 -17
-20 -27 -45 -11 -25 -23 -45 -28 -45 -5 0 -7 -4 -4 -9 7 -11 -25 -71 -37 -71
-5 0 -5 -5 -2 -10 3 -6 -3 -23 -14 -39 -12 -16 -21 -34 -21 -41 0 -6 -4 -8
-10 -5 -5 3 -10 -3 -10 -14 0 -11 -5 -23 -10 -26 -6 -4 -8 -11 -5 -16 4 -5 0
-12 -8 -15 -9 -3 -21 -20 -28 -37 -14 -35 -60 -107 -84 -131 -9 -8 -15 -17
-13 -18 3 -4 -32 -47 -59 -71 -13 -11 -23 -28 -23 -36 0 -9 -9 -22 -20 -29
-12 -7 -18 -17 -15 -22 3 -6 1 -10 -6 -10 -7 0 -10 -3 -7 -6 3 -3 -6 -18 -20
-33 -15 -15 -43 -46 -62 -70 -19 -24 -56 -67 -82 -95 -26 -28 -48 -54 -48 -58
0 -5 -7 -8 -15 -8 -8 0 -15 -6 -15 -12 0 -7 -14 -24 -30 -37 -16 -13 -27 -27
-24 -32 3 -5 0 -9 -6 -9 -12 0 -70 -60 -70 -72 0 -5 -4 -7 -9 -5 -4 1 -36 -26
-70 -59 -33 -34 -61 -59 -61 -55 0 3 -11 -5 -24 -19 -13 -14 -41 -38 -61 -55
-21 -16 -44 -36 -51 -43 -7 -7 -17 -14 -21 -15 -10 -2 -39 -24 -70 -54 -13
-13 -25 -22 -28 -20 -2 1 -13 -5 -23 -14 -10 -9 -31 -19 -46 -23 -15 -4 -24
-11 -21 -16 3 -6 2 -10 -3 -10 -5 0 -26 -11 -46 -25 -20 -13 -36 -22 -36 -18
0 3 -8 -1 -18 -10 -10 -10 -22 -14 -25 -10 -4 3 -7 1 -7 -5 0 -7 -7 -12 -15
-12 -8 0 -15 -5 -15 -10 0 -6 -3 -9 -7 -8 -5 1 -38 -13 -75 -31 -37 -17 -71
-32 -75 -32 -5 -1 -16 -5 -27 -11 -37 -20 -143 -55 -159 -52 -9 1 -17 -1 -17
-6 0 -7 -80 -23 -96 -20 -4 1 -11 -4 -15 -12 -6 -9 -9 -10 -9 -1 0 9 -7 10
-22 4 -13 -4 -31 -7 -41 -6 -9 2 -17 0 -17 -3 0 -7 -264 -6 -333 1 -21 2 -43
9 -49 15 -6 6 -17 8 -25 5 -17 -6 -77 10 -143 40 -25 11 -50 20 -56 21 -7 1
-19 8 -28 15 -9 7 -16 11 -16 7 0 -9 -77 33 -90 49 -6 8 -18 11 -26 8 -8 -3
-14 1 -14 8 0 7 -3 10 -6 6 -6 -6 -66 28 -105 61 -48 39 -120 122 -141 161 -7
14 -19 32 -26 39 -7 8 -10 18 -7 23 4 5 2 9 -3 9 -10 0 -85 157 -85 178 0 6
-4 12 -8 12 -4 0 -11 15 -15 33 -4 17 -9 35 -10 40 -1 4 -3 9 -4 12 -1 3 -4
10 -5 15 -1 6 -4 12 -5 15 -1 3 -3 8 -4 13 -2 4 -8 27 -16 52 -7 25 -15 54
-17 65 -3 19 -18 94 -29 145 -2 14 -7 45 -10 70 -2 25 -7 61 -11 80 -13 79
-24 550 -13 550 3 0 6 33 5 73 0 39 3 80 8 90 5 11 4 24 -3 32 -6 8 -7 16 -2
19 5 3 10 29 11 58 0 29 3 64 6 78 2 14 7 48 10 75 4 28 8 64 10 80 2 17 7 48
10 70 4 22 7 49 8 60 2 11 7 26 11 34 7 10 5 12 -3 6 -10 -6 -11 -3 -2 13 6
11 13 38 15 59 3 21 8 49 11 63 3 14 8 32 10 40 2 8 4 15 5 15 1 0 3 11 5 25
3 14 6 32 8 40 15 60 19 77 24 90 4 8 6 18 5 22 -1 4 5 25 13 47 8 23 12 41 9
41 -2 0 2 16 10 35 9 20 15 38 16 40 0 3 0 6 1 8 1 3 9 50 11 65 1 6 5 12 10
12 5 0 7 4 4 8 -3 5 1 21 9 36 8 15 14 30 13 34 -1 4 6 25 16 47 9 21 18 46
20 55 1 8 11 33 21 55 10 22 19 42 19 45 8 31 42 110 48 110 4 0 8 7 8 15 0
26 171 341 195 357 5 4 6 8 2 8 -8 0 2 13 36 51 9 10 17 21 17 24 0 3 0 10 0
16 0 5 4 8 9 4 5 -3 12 4 16 15 3 11 22 35 41 55 19 19 34 38 34 40 0 8 153
158 184 180 15 11 41 32 58 48 18 15 38 27 45 27 7 0 12 3 10 8 -1 4 3 9 8 11
6 2 22 12 37 23 16 11 28 16 28 11 0 -4 4 -3 8 3 12 18 137 70 192 80 14 3 33
7 44 10 10 4 22 0 27 -7 6 -10 9 -11 9 -1 0 6 7 12 15 12 8 0 15 -6 15 -12 0
-10 3 -9 9 1 5 8 11 9 15 3 4 -6 15 -9 26 -7 11 2 20 0 20 -4 0 -7 7 -9 50
-13 11 -1 20 -5 20 -8 0 -3 15 -14 33 -25 17 -10 40 -27 50 -38 9 -11 17 -17
17 -13 0 4 7 1 15 -8 8 -8 15 -20 15 -26 0 -6 5 -8 10 -5 6 3 10 0 10 -9 0 -8
4 -16 8 -18 11 -4 72 -94 72 -107 0 -5 6 -16 13 -23 6 -7 18 -29 25 -48 19
-49 45 -123 47 -135 5 -23 8 -31 17 -55 6 -14 11 -32 12 -40 4 -36 31 -120 38
-120 4 0 8 -7 8 -16 0 -8 5 -12 10 -9 6 3 10 0 10 -7 0 -15 118 -83 127 -74 3
3 13 -2 21 -11 11 -10 17 -12 20 -4 3 8 9 8 23 0 29 -15 143 7 177 34 6 5 12
6 12 1 0 -5 4 -4 8 1 4 6 16 15 27 21 11 6 18 13 16 15 -2 2 1 15 8 28 10 18
10 22 1 16 -9 -6 -11 0 -8 24 2 17 1 31 -4 31 -4 0 -8 6 -8 14 0 7 -7 26 -14
42 -8 15 -13 31 -10 36 3 4 1 8 -4 8 -9 0 -37 50 -34 63 1 4 -2 7 -7 7 -5 0
-14 12 -20 28 -6 15 -15 34 -20 42 -14 21 -25 53 -22 64 1 5 -2 12 -7 15 -4 3
-19 35 -32 71 -13 36 -30 76 -37 89 -6 14 -10 28 -7 33 3 4 0 8 -5 8 -6 0 -10
3 -9 8 1 4 -6 24 -15 46 -9 21 -17 42 -17 47 0 5 -4 9 -8 9 -4 0 -14 17 -21
38 -8 20 -20 45 -29 55 -8 9 -12 17 -7 17 4 0 2 6 -4 13 -6 8 -8 17 -4 20 3 4
1 7 -5 7 -6 0 -18 15 -27 34 -9 18 -25 43 -35 54 -11 12 -20 25 -20 31 0 5 -4
11 -9 13 -5 2 -34 26 -63 53 -29 28 -69 62 -88 75 -19 13 -38 29 -42 35 -4 5
-8 6 -8 2 0 -5 -15 2 -32 15 -18 13 -33 21 -33 19 0 -2 -17 4 -38 12 -56 24
-99 30 -224 31 -82 1 -129 -4 -166 -16 -28 -9 -54 -15 -58 -12 -4 2 -10 -3
-13 -12 -4 -9 -9 -14 -13 -10 -3 3 -17 -1 -30 -9 -13 -9 -23 -13 -23 -10 0 4
-7 -1 -16 -9 -8 -9 -20 -14 -25 -11 -5 4 -9 1 -9 -6 0 -7 -3 -10 -6 -6 -3 3
-14 -2 -24 -11 -32 -29 -49 -42 -55 -42 -15 1 -105 -54 -140 -85 -22 -19 -43
-35 -48 -35 -4 0 -23 -15 -42 -34 -18 -19 -36 -31 -39 -28 -3 3 -6 -2 -6 -12
0 -9 -3 -15 -7 -13 -5 2 -51 -40 -104 -95 -53 -54 -94 -98 -91 -98 3 0 -7 -11
-22 -25 -14 -13 -26 -27 -26 -30 0 -5 -40 -53 -77 -92 -13 -13 -23 -26 -23
-29 0 -3 -25 -42 -55 -86 -30 -44 -55 -84 -55 -89 0 -5 -4 -9 -10 -9 -5 0 -10
-7 -10 -15 0 -8 -5 -15 -11 -15 -5 0 -8 -4 -4 -9 3 -5 0 -13 -6 -17 -6 -3 -17
-22 -25 -40 -8 -19 -19 -34 -24 -34 -6 0 -9 -3 -8 -7 1 -5 -3 -18 -10 -29 -6
-12 -8 -24 -5 -28 3 -3 1 -6 -6 -6 -7 0 -17 -13 -22 -30 -6 -16 -15 -30 -20
-30 -5 0 -8 -3 -7 -7 3 -15 -14 -63 -23 -63 -5 0 -9 -9 -9 -20 0 -11 -5 -20
-10 -20 -6 0 -9 -3 -8 -7 1 -5 -3 -19 -9 -33 -6 -14 -11 -29 -11 -34 0 -5 -5
-12 -12 -16 -6 -4 -12 -16 -13 -28 0 -12 -7 -24 -14 -26 -7 -3 -10 -12 -7 -21
4 -8 1 -15 -7 -15 -7 0 -10 -3 -6 -6 6 -6 -48 -140 -65 -161 -5 -7 -7 -17 -3
-23 3 -5 1 -10 -5 -10 -7 0 -10 -7 -7 -15 4 -8 2 -17 -3 -20 -6 -4 -10 -14
-10 -24 0 -10 -8 -36 -17 -57 -10 -22 -18 -43 -19 -49 -1 -5 -3 -12 -4 -15 -1
-3 -3 -12 -5 -20 -2 -8 -13 -46 -25 -85 -19 -64 -25 -83 -35 -125 -2 -8 -4
-17 -6 -20 -1 -3 -3 -9 -4 -15 -2 -5 -4 -13 -5 -17 -1 -5 -3 -11 -5 -15 -11
-43 -16 -62 -19 -83 -3 -14 -5 -25 -6 -25 -2 0 -6 -16 -14 -60 -11 -61 -18
-90 -24 -99 -5 -9 -12 -64 -13 -98 0 -10 -4 -18 -8 -18 -4 0 -7 -10 -6 -22 1
-13 0 -27 -3 -33 -4 -5 -7 -23 -9 -40 -3 -36 -10 -85 -19 -123 -3 -15 -6 -34
-6 -42 0 -8 -5 -46 -10 -85 -9 -67 -12 -87 -24 -220 -8 -88 -14 -607 -8 -625
6 -14 11 -82 17 -197 1 -24 5 -43 8 -43 3 0 7 -12 7 -27 2 -27 9 -68 12 -68 1
0 3 -16 6 -35 2 -19 7 -42 11 -50 3 -8 7 -17 7 -20 7 -30 30 -109 36 -125 12
-29 23 -59 24 -65 3 -16 51 -127 58 -137 6 -7 7 -17 3 -23 -3 -5 -1 -10 5 -10
6 0 8 -4 5 -10 -3 -5 -1 -10 4 -10 6 0 11 -7 11 -15 0 -8 5 -15 10 -15 6 0 10
-7 10 -15 0 -8 5 -15 10 -15 6 0 10 -5 10 -11 0 -5 13 -24 30 -42 16 -18 30
-35 30 -39 0 -4 10 -18 23 -32 43 -47 57 -66 57 -77 0 -5 4 -7 10 -4 5 3 10 1
10 -5 0 -12 150 -164 150 -152 1 4 7 -4 15 -18 8 -14 14 -21 15 -16 0 6 8 1
19 -10 10 -10 28 -26 41 -34 12 -8 34 -25 48 -37 14 -12 41 -30 59 -40 18 -10
33 -21 33 -26 0 -4 5 -5 10 -2 6 3 10 1 10 -4 0 -6 6 -11 13 -11 7 0 35 -14
61 -30 26 -17 45 -26 41 -21 -3 6 13 -1 37 -14 23 -13 45 -22 50 -19 4 3 8 0
8 -6 0 -6 4 -9 8 -6 5 3 21 -1 35 -9 15 -8 30 -14 32 -15 3 0 6 0 8 -1 1 0 9
-2 17 -4 8 -2 29 -6 45 -10 17 -3 39 -8 50 -9 11 -2 20 -4 20 -5 0 -3 34 -9
85 -15 25 -2 47 -5 50 -6 14 -6 296 -4 300 1 4 6 97 19 143 20 9 0 17 3 17 7
0 4 15 8 33 9 50 4 57 6 57 15 0 5 5 6 10 3 6 -4 17 -2 24 4 7 6 21 12 32 14
10 1 25 6 32 10 6 5 12 5 12 0 0 -4 4 -2 8 5 5 7 19 14 31 17 13 2 29 9 37 16
8 6 14 8 14 4 0 -5 8 -2 18 6 9 8 31 21 47 29 17 8 33 19 37 25 4 5 8 6 8 2 0
-5 7 -1 16 7 8 9 20 14 25 11 5 -4 9 -1 9 4 0 6 7 11 16 11 9 0 12 5 8 12 -5
7 -2 9 8 6 8 -4 20 2 27 13 6 11 16 17 20 14 5 -2 12 2 15 11 3 8 10 12 16 9
5 -3 10 -1 10 5 0 6 4 9 9 5 6 -3 13 0 18 7 12 20 56 56 71 60 8 2 29 17 46
33 18 17 50 43 72 60 21 16 51 42 66 56 15 15 29 25 30 23 2 -1 32 24 67 57
35 32 65 59 66 59 4 0 251 248 300 302 95 104 115 128 115 138 0 6 4 9 9 5 5
-3 12 3 15 12 3 10 16 30 28 45 47 55 56 66 98 124 23 32 48 64 55 69 7 6 13
15 14 20 1 6 10 21 21 35 11 14 19 29 19 34 -1 5 4 12 10 15 6 4 40 52 75 106
36 55 69 105 73 110 4 6 9 16 10 22 2 7 19 37 38 68 20 30 33 55 29 55 -4 0 1
9 11 20 10 11 14 20 9 20 -5 0 -4 4 1 8 10 7 45 75 76 150 8 17 17 32 21 32 5
0 8 7 8 15 0 8 5 15 10 15 6 0 10 5 10 10 0 15 16 33 95 112 38 37 75 66 82
64 7 -3 13 -1 13 4 0 6 7 10 15 10 8 0 15 3 15 8 0 4 25 8 55 9 31 1 55 -3 55
-9 0 -5 6 -8 13 -5 15 5 168 -75 218 -114 20 -16 42 -29 47 -29 6 0 14 -9 17
-20 4 -11 10 -18 15 -15 4 3 15 -5 23 -18 8 -12 25 -33 37 -47 12 -14 34 -45
48 -70 14 -25 29 -47 32 -50 3 -3 16 -27 30 -55 14 -27 28 -51 33 -53 4 -2 7
-9 7 -16 0 -6 13 -37 29 -68 16 -31 27 -59 24 -62 -4 -3 -1 -6 6 -6 7 0 9 -4
6 -10 -3 -6 -1 -10 4 -10 6 0 11 -6 11 -14 0 -12 14 -44 51 -118 5 -10 9 -22
9 -27 0 -5 8 -26 17 -47 9 -22 16 -42 15 -46 -1 -5 3 -8 8 -8 5 0 9 -3 8 -7
-1 -5 8 -30 20 -57 13 -28 25 -60 28 -73 4 -13 9 -23 13 -23 4 0 8 -6 9 -12 2
-22 8 -41 25 -82 9 -21 17 -44 17 -50 0 -7 4 -16 9 -21 5 -6 11 -19 13 -30 1
-11 6 -23 10 -26 5 -3 9 -17 10 -32 1 -15 6 -27 10 -27 4 0 8 -9 8 -19 0 -11
5 -23 10 -26 6 -3 10 -17 10 -31 0 -13 5 -24 11 -24 6 0 9 -7 6 -15 -4 -8 -2
-17 2 -20 5 -2 12 -22 17 -42 4 -21 8 -40 9 -43 11 -37 28 -98 31 -110 37
-165 44 -212 46 -315 1 -55 -9 -142 -18 -156 -3 -5 7 -10 23 -10 127 -5 194
12 247 66 34 34 82 117 90 155 3 14 8 36 12 50 3 14 7 46 8 72 0 25 4 49 8 53
4 4 3 17 -1 29 -4 11 -7 40 -6 64 0 23 -2 42 -5 42 -3 0 -6 10 -7 23 -2 41
-11 85 -23 106 -8 16 -8 21 2 21 9 0 9 3 0 12 -7 7 -12 22 -12 34 0 13 -5 26
-10 29 -6 4 -8 11 -5 16 4 5 3 15 -2 22 -4 6 -8 17 -8 22 -1 10 -6 22 -26 73
-5 13 -9 32 -9 42 0 11 -4 20 -10 20 -5 0 -10 11 -10 25 0 14 -4 25 -10 25 -5
0 -10 9 -10 19 0 11 -5 23 -10 26 -6 4 -8 11 -5 16 4 5 1 9 -4 9 -6 0 -10 3
-9 8 2 10 -17 55 -57 133 -19 37 -32 69 -29 71 2 3 -2 11 -11 18 -8 7 -15 19
-15 26 0 8 -5 14 -11 14 -5 0 -7 5 -4 10 3 6 -1 17 -9 26 -9 8 -19 27 -22 42
-4 15 -12 34 -19 42 -6 8 -36 60 -65 115 -29 55 -65 118 -79 140 -45 70 -51
80 -57 98 -3 9 -11 17 -16 17 -5 0 -6 5 -3 10 3 6 2 10 -2 10 -9 0 -41 49 -41
63 -1 5 -10 17 -21 26 -12 10 -21 25 -21 34 0 8 -7 17 -15 21 -8 3 -15 12 -15
21 0 8 -4 15 -10 15 -5 0 -10 6 -10 14 0 8 -7 17 -16 20 -8 3 -13 10 -10 14 3
5 -6 20 -20 35 -13 14 -24 29 -24 32 0 6 -44 67 -65 91 -5 6 -17 22 -25 34 -8
12 -21 28 -27 36 -7 7 -13 15 -13 18 0 3 -25 29 -55 58 -30 28 -53 54 -50 56
2 2 -5 13 -16 25 -21 23 -24 40 -9 68 11 19 68 55 83 51 4 -1 7 2 7 6 0 5 27
17 60 27 33 10 60 21 60 25 0 4 6 7 13 8 20 2 41 7 52 14 6 3 25 9 43 13 17 3
32 11 32 17 0 6 3 9 6 5 6 -5 93 22 139 44 11 5 31 11 44 14 14 2 28 10 31 16
4 6 10 10 14 10 19 -2 66 13 66 21 0 5 5 6 10 3 6 -4 17 -1 25 5 8 7 15 9 15
5 0 -4 6 -2 13 4 8 6 17 8 20 4 4 -3 7 -1 7 5 0 7 8 12 18 12 10 0 28 7 40 16
12 8 22 12 22 8 0 -3 6 -1 13 5 8 6 17 8 20 4 4 -3 7 -1 7 5 0 7 8 12 18 12
10 0 29 8 42 17 14 10 25 16 25 15 0 -2 14 2 30 8 17 6 38 12 48 13 9 1 17 5
17 9 0 4 5 8 12 8 6 0 30 9 52 19 23 11 48 21 56 23 8 2 21 9 28 16 8 7 18 10
23 7 5 -4 9 -1 9 6 0 7 3 10 6 6 3 -3 21 3 40 14 19 10 41 19 50 19 8 0 17 6
20 13 3 8 10 14 17 14 22 1 41 8 55 21 8 7 18 10 23 7 5 -4 9 -1 9 6 0 7 3 10
6 6 3 -3 15 3 27 13 11 11 24 17 28 14 4 -2 10 0 14 6 4 6 11 8 16 5 5 -4 9
-2 9 3 0 4 16 14 35 22 19 8 35 17 35 22 0 4 4 7 8 6 7 -3 101 40 142 64 8 4
27 13 43 19 15 6 27 15 27 21 0 5 4 7 9 3 5 -3 15 0 23 7 7 7 20 14 28 16 8 2
17 7 20 10 3 4 25 17 50 29 66 32 125 67 128 76 2 4 7 5 12 2 5 -3 14 1 22 8
13 13 62 44 133 83 17 9 34 23 38 31 5 7 12 11 16 8 5 -2 14 2 21 10 7 8 18
15 25 15 7 0 15 7 19 15 3 8 12 15 21 15 8 0 15 5 15 10 0 6 4 10 10 10 13 0
103 62 113 78 5 7 12 10 18 7 5 -4 9 -1 9 5 0 6 15 17 33 25 17 8 28 14 23 15
-5 0 9 13 30 29 22 17 46 36 56 45 9 8 19 12 22 9 3 -4 6 1 6 10 0 10 5 17 10
17 11 0 11 0 121 106 77 75 119 123 119 137 0 4 5 5 10 2 6 -3 10 -1 10 6 0 6
11 22 25 35 14 13 25 27 25 33 0 5 11 19 26 30 14 11 25 22 25 25 -1 13 33 76
41 76 4 0 8 5 8 12 0 6 7 19 16 29 8 9 17 23 18 31 5 23 29 68 37 68 5 0 6 7
3 15 -4 8 -1 15 7 15 7 0 10 3 6 6 -3 3 5 35 19 70 13 35 21 64 18 64 -4 0 -1
7 6 15 6 8 9 19 6 24 -4 5 -2 12 3 16 5 3 8 14 6 25 -2 11 0 22 4 25 5 2 7 18
5 35 -2 16 0 30 4 30 9 0 7 69 -3 78 -3 3 -9 2 -13 -4 -7 -10 -36 -24 -48 -23
-4 0 -10 -4 -13 -9 -3 -6 -56 -36 -116 -67 -61 -32 -128 -67 -150 -78 -22 -12
-43 -20 -47 -19 -5 1 -8 -2 -8 -7 0 -5 -14 -14 -30 -21 -43 -18 -96 -62 -95
-80 1 -8 -2 -19 -6 -25 -3 -5 -6 -27 -5 -48 0 -20 -2 -37 -5 -37 -4 0 -10 -7
-13 -16 -3 -9 -2 -12 4 -9 6 4 -3 -21 -20 -54 -17 -34 -35 -61 -40 -61 -5 0
-6 -7 -3 -17 4 -11 3 -14 -5 -9 -7 4 -12 1 -12 -9 0 -8 -7 -18 -15 -21 -8 -4
-12 -10 -9 -15 3 -5 0 -9 -5 -9 -6 0 -11 -7 -11 -15 0 -8 -4 -15 -9 -15 -5 0
-19 -15 -32 -34 -13 -19 -27 -32 -31 -30 -4 3 -8 1 -8 -5 0 -13 -77 -92 -112
-115 -16 -10 -28 -25 -28 -34 0 -8 -3 -13 -6 -9 -5 5 -33 -15 -70 -50 -7 -7
-15 -13 -18 -13 -3 0 -14 -8 -24 -17 -26 -25 -52 -45 -85 -66 -16 -10 -36 -25
-45 -33 -9 -8 -20 -14 -24 -14 -5 0 -16 -8 -26 -17 -25 -24 -61 -53 -66 -53
-2 0 -37 -22 -79 -50 -42 -27 -78 -50 -81 -50 -8 0 -101 -63 -108 -74 -4 -6
-8 -7 -8 -3 0 5 -13 -1 -29 -12 -16 -12 -34 -21 -39 -21 -6 0 -12 -3 -14 -7
-1 -5 -24 -19 -50 -32 -27 -13 -48 -28 -48 -33 0 -5 -4 -7 -9 -4 -5 3 -20 -3
-33 -14 -14 -11 -28 -16 -32 -13 -3 3 -6 2 -6 -3 0 -5 -20 -18 -45 -29 -25
-11 -45 -22 -45 -25 0 -4 -16 -12 -35 -20 -19 -8 -35 -18 -35 -22 0 -5 -4 -6
-10 -3 -5 3 -10 1 -10 -5 0 -6 -4 -9 -9 -6 -5 4 -11 3 -13 -1 -1 -5 -39 -26
-83 -48 -44 -22 -86 -46 -93 -53 -7 -7 -18 -10 -23 -7 -5 4 -9 1 -9 -4 0 -6
-7 -11 -15 -11 -8 0 -15 -5 -15 -12 0 -6 -3 -8 -6 -5 -7 6 -103 -42 -133 -66
-12 -10 -13 -9 -6 3 7 13 6 13 -11 -1 -10 -8 -41 -26 -69 -39 -27 -13 -59 -31
-69 -39 -11 -9 -16 -10 -12 -3 10 17 2 15 -24 -8 -13 -11 -29 -20 -36 -20 -7
0 -29 -9 -49 -20 -19 -11 -35 -17 -35 -15 0 3 -10 -1 -23 -10 -13 -8 -27 -12
-30 -8 -4 3 -7 1 -7 -5 0 -7 -9 -12 -20 -12 -11 0 -20 -4 -20 -8 0 -5 -6 -9
-12 -9 -7 0 -49 -12 -92 -27 -83 -28 -120 -37 -148 -39 -10 -1 -18 -4 -18 -7
0 -10 -215 0 -227 10 -2 2 -7 4 -13 5 -5 1 -11 3 -12 5 -2 1 -10 3 -19 5 -68
13 -96 61 -92 160 3 79 8 106 27 143 9 18 14 32 11 32 -3 0 6 18 20 40 14 22
25 43 25 48 0 4 16 31 35 61 19 29 35 57 35 61 0 5 8 14 18 19 9 6 13 11 8 11
-5 0 3 12 18 26 14 15 26 34 26 43 0 14 2 14 10 1 8 -13 10 -13 10 1 0 9 16
32 35 52 20 21 33 37 30 37 -3 0 60 65 140 145 80 80 150 145 156 145 5 0 7 5
4 10 -3 6 -2 10 4 10 9 0 40 24 82 63 10 9 21 17 24 17 6 0 42 29 66 54 11 11
19 16 19 12 0 -4 10 3 23 14 12 12 45 37 74 56 29 19 58 40 65 47 14 13 69 51
78 53 17 4 53 23 45 24 -10 0 54 39 135 82 25 12 47 26 50 29 7 9 104 52 113
51 4 -1 7 1 7 6 0 4 15 13 33 21 17 7 59 26 92 41 33 15 78 35 100 45 22 9 52
23 68 31 15 9 27 12 27 8 0 -4 8 0 18 9 10 10 22 14 26 10 4 -4 11 -2 15 5 4
7 18 14 29 15 12 1 22 5 22 9 0 4 3 7 8 6 4 -1 23 4 42 11 41 16 60 22 78 23
6 1 12 4 12 8 0 6 8 8 50 12 11 1 20 6 20 10 0 4 17 10 38 14 20 4 42 9 47 13
6 3 15 6 20 7 6 1 55 14 110 28 55 15 107 29 115 31 8 2 15 4 15 5 0 4 56 13
150 25 28 4 61 8 75 11 14 2 63 4 109 5 77 1 88 4 137 35 29 19 55 34 58 34 3
0 28 16 56 36 27 20 50 33 50 29 0 -3 7 1 16 9 8 9 20 14 25 10 5 -3 8 0 7 8
-2 8 4 12 16 10 11 -2 15 1 11 7 -3 6 -2 11 3 11 5 0 25 11 45 24 19 13 38 22
41 18 3 -3 6 0 6 6 0 7 7 12 15 12 8 0 15 5 15 10 0 6 5 10 11 10 6 0 17 7 26
16 14 14 14 17 -6 35 -12 11 -26 17 -31 14 -6 -3 -10 -2 -10 4 0 8 -59 24
-100 26 -8 0 -21 4 -29 9 -10 7 -12 6 -6 -4 6 -10 4 -11 -6 -4 -16 10 -59 14
-59 5z"/>
<path d="M5130 7411 c0 -4 -10 -7 -22 -6 -13 1 -29 -2 -36 -8 -7 -5 -15 -7
-19 -3 -3 3 -15 -1 -25 -11 -10 -9 -18 -13 -18 -9 0 10 -70 -44 -103 -79 -42
-46 -77 -114 -84 -162 -3 -23 -10 -40 -14 -37 -5 3 -5 -6 0 -19 6 -16 6 -28
-2 -36 -8 -8 -7 -11 3 -11 7 0 11 -3 8 -6 -5 -5 0 -28 17 -79 1 -5 6 -20 10
-32 4 -13 11 -23 16 -23 5 0 9 -7 9 -15 0 -8 4 -15 8 -15 5 0 15 -11 22 -25 7
-14 16 -23 18 -20 3 2 12 -3 21 -13 25 -27 60 -47 126 -70 45 -17 61 -19 67
-9 6 9 8 9 8 0 0 -16 51 -10 110 11 25 10 50 18 55 20 73 18 185 155 187 228
1 15 4 28 7 28 3 0 6 20 6 45 0 25 -4 45 -8 45 -5 0 -6 4 -3 8 7 12 -15 102
-25 102 -6 0 -8 4 -5 9 3 5 -5 20 -19 35 -13 14 -21 26 -18 26 3 0 -5 9 -18
21 -13 11 -34 29 -46 39 -12 10 -24 16 -27 13 -3 -4 -6 -2 -6 4 0 10 -40 31
-71 37 -8 2 -21 6 -29 9 -27 10 -100 17 -100 8z"/>
<path d="M5196 2122 c-3 -5 -25 -8 -50 -7 -44 2 -50 -6 -26 -40 4 -5 8 -17 8
-25 1 -24 3 -314 2 -320 0 -3 -2 -38 -3 -79 -2 -48 -7 -76 -15 -79 -7 -2 -10
-8 -6 -13 3 -5 -2 -9 -11 -9 -9 0 -13 -4 -10 -10 3 -5 47 -9 97 -8 91 1 91 1
68 20 -13 10 -24 29 -24 41 -1 12 -5 27 -9 34 -4 6 -3 14 3 18 6 4 7 12 3 18
-9 15 -10 408 0 414 4 2 5 9 1 14 -3 5 -2 8 3 7 4 -2 9 2 10 7 0 6 -4 9 -10 7
-5 -2 -13 2 -17 9 -5 7 -10 7 -14 1z"/>
<path d="M5365 2119 c-16 -4 -23 -7 -14 -8 19 -1 99 -75 99 -91 0 -5 5 -10 10
-10 6 0 9 -12 9 -27 -3 -49 1 -87 8 -80 3 4 6 20 5 37 0 20 4 30 14 30 8 0 12
-5 9 -10 -3 -6 0 -13 8 -16 9 -3 21 -19 27 -35 7 -16 16 -27 20 -24 4 2 13 -8
21 -23 8 -15 23 -37 34 -49 21 -23 41 -48 65 -84 8 -12 23 -29 33 -38 9 -8 17
-19 17 -23 0 -7 28 -43 58 -74 7 -8 10 -14 6 -14 -4 0 5 -10 20 -21 15 -12 29
-19 31 -17 2 2 6 38 7 79 2 40 8 77 13 81 6 5 5 8 -4 8 -9 0 -11 6 -6 18 4 9
8 78 9 152 2 136 9 180 27 180 6 0 8 4 4 10 -3 5 7 16 22 24 l28 15 -25 1
c-95 5 -143 4 -148 -5 -3 -5 -2 -7 3 -3 18 16 53 -44 59 -100 2 -22 7 -45 10
-51 4 -6 3 -11 -2 -11 -10 0 -9 -30 2 -48 4 -6 4 -12 -1 -12 -10 0 -9 -102 1
-118 4 -7 3 -12 -1 -12 -5 0 -8 -13 -7 -30 1 -16 -1 -30 -6 -30 -7 0 -36 33
-74 85 -11 14 -30 38 -43 53 -13 15 -23 30 -23 35 0 4 -8 16 -17 26 -10 11
-27 32 -38 47 -11 15 -29 37 -40 48 -11 12 -22 26 -23 31 -4 10 -31 47 -62 84
-12 14 -28 18 -63 17 -26 -1 -48 1 -49 4 -2 3 -16 3 -33 -1z"/>
<path d="M6238 2122 c-16 -2 -28 -8 -28 -13 0 -5 -3 -8 -7 -7 -14 5 -73 -36
-79 -54 -3 -10 -9 -18 -14 -18 -11 0 -39 -51 -47 -83 -20 -88 -21 -237 -1
-237 4 0 8 -7 8 -16 0 -10 16 -36 35 -59 19 -23 31 -46 27 -51 -4 -5 -3 -6 2
-2 5 4 21 -1 35 -11 14 -10 35 -21 46 -25 33 -13 115 -18 115 -8 0 5 -18 8
-40 6 -26 -2 -39 1 -37 9 1 6 -3 11 -8 12 -13 0 -70 55 -58 55 4 0 2 4 -4 8
-7 4 -14 17 -16 27 -1 11 -5 25 -9 30 -3 6 -6 67 -7 138 -1 140 13 200 55 246
13 14 24 21 24 16 0 -6 5 -3 10 5 7 11 27 15 72 15 114 0 152 -55 157 -225 1
-57 4 -107 7 -111 2 -4 -2 -10 -8 -12 -10 -4 -10 -6 0 -6 8 -1 10 -6 5 -13 -4
-7 -8 -22 -9 -33 -6 -64 -10 -75 -22 -75 -7 0 -10 -5 -7 -10 6 -10 -52 -70
-67 -70 -5 0 -8 -5 -8 -10 0 -7 8 -6 23 1 12 7 23 12 25 10 1 -1 15 5 31 13
16 9 30 14 32 12 2 -2 16 10 31 25 15 16 25 29 22 29 -3 0 2 7 10 16 9 8 14
20 11 25 -4 5 -1 9 6 9 7 0 9 3 6 6 -3 4 -2 15 4 26 6 11 10 59 10 106 -1 97
-3 111 -14 130 -5 6 -5 12 -2 12 12 0 -31 66 -65 99 -36 34 -66 50 -110 58
-35 6 -110 9 -142 5z"/>
<path d="M6780 2119 c0 -5 -6 -6 -13 -3 -7 2 -24 -5 -38 -17 -13 -11 -30 -24
-37 -28 -7 -4 -15 -16 -17 -27 -2 -10 -4 -20 -5 -21 -3 -4 -2 -52 0 -58 3 -6
6 -14 15 -42 4 -13 11 -20 16 -17 5 3 9 -2 9 -11 0 -9 9 -19 20 -22 11 -3 20
-9 20 -14 0 -5 7 -9 15 -9 8 0 15 -4 15 -8 0 -5 16 -17 35 -28 19 -10 35 -23
35 -28 0 -5 3 -7 6 -3 3 3 16 -4 29 -16 12 -12 32 -28 43 -36 18 -13 29 -36
38 -81 2 -8 -3 -21 -9 -29 -10 -12 -9 -13 3 -7 8 4 6 0 -5 -9 -11 -9 -19 -18
-17 -21 7 -10 -5 -25 -23 -28 -10 -1 -20 -8 -21 -15 -1 -6 0 -7 2 -2 3 5 17 7
31 5 14 -3 31 0 39 7 8 6 14 8 14 4 0 -3 14 7 31 24 17 17 28 35 24 40 -3 5
-1 12 4 15 10 7 9 25 -2 43 -4 6 -3 14 3 18 6 4 4 15 -6 31 -9 13 -13 24 -8
24 4 0 -17 22 -47 50 -30 27 -58 50 -62 50 -8 0 -23 11 -58 43 -10 9 -19 15
-19 12 0 -6 -26 17 -77 67 -28 27 -35 66 -14 78 9 5 12 10 7 10 -14 0 26 40
41 40 7 0 13 6 13 13 0 8 -7 14 -15 14 -8 0 -15 -4 -15 -8z"/>
<path d="M6850 2120 c0 -5 5 -10 11 -10 5 0 7 5 4 10 -3 6 -8 10 -11 10 -2 0
-4 -4 -4 -10z"/>
<path d="M6889 2113 c-8 -9 -9 -14 -3 -10 17 10 73 -15 80 -35 3 -10 10 -18
15 -18 5 0 9 -4 9 -9 0 -5 7 -26 16 -46 19 -46 36 -31 24 21 -5 22 -4 35 4 38
8 3 7 5 -1 5 -7 1 -10 7 -7 14 5 14 -42 45 -53 34 -3 -4 -12 -2 -20 4 -7 6
-13 8 -13 5 0 -4 -9 -2 -19 3 -14 8 -22 7 -32 -6z"/>
<path d="M7500 2121 c0 -5 -8 -8 -17 -6 -10 1 -24 -3 -32 -9 -11 -8 -13 -8 -8
1 8 13 -18 12 -30 -2 -4 -4 -3 -5 3 -2 28 16 38 -48 39 -240 1 -106 -2 -193
-5 -193 -3 0 -6 -10 -7 -22 -1 -33 -14 -68 -25 -68 -5 0 -16 -7 -25 -15 -8 -8
-19 -13 -24 -10 -5 4 -6 0 -4 -8 7 -17 143 -20 164 -3 9 6 12 7 9 1 -4 -6 1
-11 11 -11 27 0 21 24 -8 29 -46 10 -55 51 -57 254 -1 105 2 180 7 177 5 -3 9
-10 9 -15 0 -5 14 -39 30 -74 17 -35 30 -69 30 -75 0 -5 5 -10 10 -10 6 0 10
-5 10 -10 0 -6 9 -30 21 -53 11 -23 22 -50 24 -61 3 -10 11 -26 20 -36 8 -9
12 -20 8 -23 -3 -4 -1 -7 5 -7 7 0 12 -8 12 -17 0 -10 11 -31 25 -48 l24 -30
7 33 c3 17 10 32 14 32 5 0 6 9 3 20 -3 12 0 20 7 20 7 0 10 7 6 15 -3 8 -1
15 4 15 6 0 10 8 9 18 0 9 -3 12 -5 5 -9 -22 -34 -1 -54 44 -11 25 -20 52 -20
59 0 8 -5 14 -11 14 -5 0 -7 5 -4 10 3 6 1 10 -4 10 -6 0 -10 3 -9 8 1 4 -14
42 -35 85 -20 44 -37 83 -37 88 0 5 -4 9 -10 9 -5 0 -7 7 -4 15 4 8 1 15 -6
15 -6 0 -8 5 -5 10 3 6 2 10 -4 10 -5 0 -11 10 -13 21 -3 21 -48 48 -48 30z"/>
<path d="M7976 2121 c-3 -5 -18 -8 -33 -8 -33 0 -58 -30 -42 -50 12 -14 17
-363 5 -381 -3 -6 -2 -13 3 -16 6 -4 6 -18 1 -36 -5 -17 -9 -34 -9 -38 -3 -28
-14 -40 -29 -35 -14 6 -15 4 -5 -9 10 -11 35 -15 103 -16 49 0 90 2 90 6 0 3
-15 18 -32 33 l-33 27 0 116 c0 64 3 116 8 116 4 0 4 8 0 18 -11 21 -10 103 0
120 5 6 5 12 0 12 -4 0 -8 18 -8 40 0 22 4 40 8 40 5 0 5 5 2 10 -3 6 -2 10 3
10 5 0 12 9 15 21 3 12 3 18 0 15 -3 -3 -14 -1 -24 4 -10 6 -20 6 -23 1z"/>
<path d="M4452 2112 c-12 -4 -5 -28 15 -52 7 -8 14 -19 14 -25 0 -5 5 -16 11
-22 6 -7 7 -13 2 -13 -5 0 -3 -4 3 -8 7 -4 15 -19 17 -32 2 -14 5 -27 6 -30 2
-3 2 -8 1 -12 0 -5 4 -8 10 -8 6 0 9 -7 5 -15 -3 -8 -1 -15 5 -15 6 0 9 -7 5
-15 -3 -8 -2 -15 2 -15 4 0 16 -24 26 -52 10 -29 23 -64 29 -78 6 -14 11 -27
12 -30 0 -3 11 -27 23 -54 12 -27 22 -52 22 -57 0 -5 5 -9 11 -9 5 0 8 -4 5
-9 -3 -5 1 -11 9 -15 17 -6 50 48 40 64 -3 6 -1 10 4 10 6 0 11 9 11 19 0 11
4 22 9 25 5 3 11 15 14 26 3 11 1 18 -4 14 -5 -3 -9 -12 -9 -20 0 -17 -26 -19
-36 -2 -5 7 -2 8 7 3 8 -4 5 1 -6 12 -11 11 -23 19 -27 16 -4 -2 -5 6 -3 17 2
11 1 20 -3 20 -4 0 -14 21 -21 48 -8 26 -18 52 -23 59 -5 7 -7 17 -3 23 3 5 1
10 -5 10 -6 0 -8 5 -5 10 3 6 1 10 -5 10 -7 0 -10 6 -7 14 3 7 1 18 -4 23 -21
21 -36 153 -18 153 7 0 9 3 5 7 -7 8 -125 12 -144 5z"/>
<path d="M4833 2105 c1 -5 6 -13 10 -16 11 -8 16 -101 7 -114 -14 -19 -23 -78
-11 -71 6 4 9 12 6 17 -4 5 -1 9 5 9 6 0 9 4 5 9 -3 5 2 17 11 25 8 9 13 16 9
16 -3 0 0 10 7 23 7 12 11 25 10 30 -1 4 3 7 8 7 6 0 10 7 10 15 0 9 7 18 16
22 8 3 13 12 9 21 -5 13 -3 13 12 1 9 -8 14 -9 10 -2 -4 6 -2 13 4 15 6 2 -20
4 -59 3 -41 0 -70 -4 -69 -10z"/>
<path d="M8161 2099 c13 -10 21 -19 17 -19 -4 0 6 -13 22 -28 16 -16 27 -32
23 -35 -3 -4 -2 -7 3 -7 6 0 20 -17 32 -39 12 -21 29 -44 37 -51 8 -7 12 -16
9 -21 -3 -5 0 -9 6 -9 6 0 8 -4 5 -10 -3 -5 1 -10 9 -10 9 0 16 -7 16 -16 0
-8 7 -22 15 -31 14 -14 14 -18 -1 -41 -9 -14 -25 -40 -36 -59 -11 -18 -24 -33
-30 -33 -5 0 -7 -4 -4 -9 3 -5 -7 -19 -23 -32 -16 -13 -28 -27 -25 -30 2 -4
-10 -18 -28 -30 -18 -13 -34 -27 -36 -31 -2 -4 -10 -8 -17 -8 -8 0 -16 -4 -20
-9 -3 -6 20 -10 57 -10 82 1 129 9 122 21 -3 5 -8 7 -12 4 -3 -3 -10 2 -17 11
-9 12 -9 23 0 47 28 75 48 116 57 116 5 0 6 5 3 10 -3 6 -2 10 4 10 5 0 13 9
16 20 3 11 11 20 16 20 6 0 8 -4 5 -8 -3 -5 5 -19 17 -33 12 -13 33 -46 47
-74 14 -27 29 -53 34 -57 5 -3 10 -22 10 -42 2 -43 11 -53 33 -35 9 8 14 9 10
3 -5 -10 21 -11 111 -5 18 1 -18 50 -37 51 -8 0 -12 3 -8 6 3 4 1 12 -6 20
-30 34 -37 44 -30 44 4 0 3 4 -2 8 -16 11 -65 80 -65 90 0 5 -7 15 -15 22 -8
7 -12 16 -9 21 3 5 1 9 -4 9 -15 0 -33 59 -26 86 3 13 10 21 15 18 5 -3 9 1 9
8 1 15 110 156 110 142 0 -5 5 -1 11 9 6 9 14 15 19 12 4 -3 10 2 14 10 3 8 2
15 -2 16 -4 0 -22 2 -39 3 -20 2 -33 -1 -33 -8 0 -7 -3 -7 -8 -1 -10 14 -32
17 -32 4 0 -5 -4 -7 -10 -4 -5 3 -10 1 -10 -4 0 -6 5 -11 10 -11 13 0 13 -37
1 -45 -6 -3 -8 -14 -6 -25 2 -10 -3 -24 -11 -31 -12 -10 -12 -14 -2 -20 10 -7
9 -9 -4 -9 -10 0 -18 -5 -18 -12 0 -6 -10 -22 -21 -34 l-21 -23 -22 27 c-12
15 -39 59 -59 98 -32 62 -35 73 -21 78 33 13 0 21 -88 22 -90 1 -90 1 -67 -17z"/>
<path d="M7881 2053 c1 -5 0 -10 -1 -13 -3 -10 -11 -45 -12 -57 -1 -7 -4 -13
-8 -13 -4 0 -7 -7 -7 -15 0 -20 16 -4 21 21 2 10 9 32 15 47 13 35 14 37 1 37
-5 0 -9 -3 -9 -7z"/>
<path d="M7840 1919 c0 -5 5 -7 10 -4 6 3 10 8 10 11 0 2 -4 4 -10 4 -5 0 -10
-5 -10 -11z"/>
<path d="M7826 1885 c-3 -8 -1 -15 4 -15 13 0 22 18 11 24 -5 3 -11 -1 -15 -9z"/>
<path d="M4814 1863 c-4 -16 -11 -34 -17 -40 -5 -7 -6 -13 -1 -13 5 0 2 -5 -6
-11 -13 -9 -13 -10 0 -6 8 2 15 8 16 13 1 10 21 62 30 75 3 5 1 9 -5 9 -6 0
-14 -12 -17 -27z"/>
<path d="M5465 1849 c2 -22 6 -44 10 -47 4 -4 6 9 4 28 -2 19 0 41 5 48 4 7 2
12 -7 12 -11 0 -14 -10 -12 -41z"/>
<path d="M7805 1820 c-3 -5 -1 -10 4 -10 6 0 11 5 11 10 0 6 -2 10 -4 10 -3 0
-8 -4 -11 -10z"/>
<path d="M5466 1743 c4 -80 -28 -173 -59 -173 -8 0 -37 -25 -37 -33 0 -2 43
-3 95 -3 55 1 95 6 95 11 0 6 -4 10 -8 10 -14 0 -45 36 -47 54 -1 9 -5 23 -9
31 -3 8 -8 42 -10 75 -3 33 -5 63 -5 68 -1 4 -5 7 -9 7 -4 0 -7 -21 -6 -47z"/>
<path d="M4771 1758 c-10 -16 -10 -23 0 -32 9 -8 10 -8 5 2 -4 7 -2 20 5 28 6
8 10 16 8 19 -3 2 -11 -5 -18 -17z"/>
<path d="M7775 1761 c-6 -11 9 -23 19 -14 9 9 7 23 -3 23 -6 0 -12 -4 -16 -9z"/>
<path d="M7770 1720 c-13 -8 -12 -10 3 -10 9 0 17 5 17 10 0 12 -1 12 -20 0z"/>
<path d="M6674 1712 c4 -7 3 -12 -3 -12 -5 0 -7 -11 -3 -27 4 -16 7 -39 6 -53
0 -31 20 -63 43 -66 10 -2 36 -6 58 -9 l40 -6 -40 27 c-48 34 -66 50 -70 67
-1 6 -6 27 -10 45 -4 18 -12 35 -18 39 -6 3 -7 1 -3 -5z"/>
</g>
</svg>
